<?xml version="1.0" encoding="UTF-8"?>
<svg version="1.1" xmlns="http://www.w3.org/2000/svg" width="1000" height="1080">
<path d="M0 0 C4.33897523 5.34920112 7.21078018 12.11030561 10.25 18.25 C10.72671143 19.20729004 11.20342285 20.16458008 11.69458008 21.15087891 C15.18923665 28.2240219 18.50691853 35.3647235 21.65527344 42.59863281 C24.18316291 48.36121469 26.96323092 53.98504761 29.79147339 59.60444641 C33.7072483 67.38727576 37.51199014 75.22290166 41.3125 83.0625 C41.68194733 83.82379211 42.05139465 84.58508423 42.43203735 85.3694458 C47.30866305 95.41835351 52.16097524 105.47837485 56.96801758 115.56079102 C60.92099931 123.84944549 64.91483711 132.11815797 68.91162109 140.38574219 C72.69148945 148.20545909 76.4524653 156.03374703 80.1875 163.875 C85.22740835 174.44801873 90.36387992 184.97351123 95.5 195.5 C101.53510329 207.86930374 107.54640735 220.24823369 113.4609375 232.67578125 C115.28703379 236.51259489 117.12789703 240.34197827 118.9765625 244.16796875 C123.84525965 254.25185932 128.65305893 264.35142998 133.25 274.5625 C136.34551092 281.43843937 139.54577986 288.23316782 142.96191406 294.95532227 C145.73647754 300.42598934 148.37691061 305.95530262 151 311.5 C153.91576875 317.65845201 156.86533447 323.79299588 159.9375 329.875 C163.56596618 337.06684365 167.04642752 344.32538928 170.51147461 351.59716797 C174.31506518 359.57738984 178.15193915 367.54116823 182 375.5 C186.87174459 385.57745083 191.7217646 395.66497274 196.53710938 405.76953125 C198.6509873 410.20111359 200.78399813 414.61852399 203 419 C210.87824306 418.35511249 218.35499897 416.62234717 226.01953125 414.74609375 C227.4107563 414.40999516 228.80211236 414.07443845 230.19358826 413.73937988 C233.17304894 413.02097968 236.15170437 412.2993642 239.12976074 411.57516479 C246.34188317 409.82166793 253.5581926 408.0855175 260.77405167 406.34747505 C263.26881608 405.74640775 265.76342631 405.14470351 268.25802612 404.54295349 C283.87822406 400.77729164 299.51720931 397.09353347 315.16096878 393.42720032 C321.46977579 391.94832113 327.7779647 390.46680794 334.0859375 388.984375 C335.12595885 388.73996799 335.12595885 388.73996799 336.18699074 388.49062347 C352.7588736 384.59489711 369.31798588 380.64587329 385.875 376.6875 C386.57846432 376.51933147 387.28192863 376.35116295 388.00671005 376.17789841 C398.00502666 373.78757561 408.00262658 371.39426424 418 369 C421.36144975 368.19506471 424.72290803 367.39016507 428.0843811 366.58532715 C430.15697087 366.08906845 432.22954213 365.59273247 434.30209351 365.09631348 C439.06436886 363.95590336 443.8270465 362.81724117 448.59082031 361.68310547 C450.36133951 361.26144104 452.13184756 360.83972977 453.90234375 360.41796875 C454.75124176 360.21578735 455.60013977 360.01360596 456.47476196 359.80529785 C461.48962721 358.60806804 466.49867892 357.38932936 471.50382996 356.15213013 C474.6453205 355.37712595 477.78922778 354.61224602 480.93356323 353.84887695 C482.35873033 353.50005248 483.78274295 353.14646499 485.20535278 352.78735352 C501.8044304 348.59898367 501.8044304 348.59898367 510 350 C512.16171827 351.67043198 512.88404226 352.43274726 513.43359375 355.12109375 C513.43488281 355.88550781 513.43617188 356.64992188 513.4375 357.4375 C513.45683594 358.19933594 513.47617187 358.96117187 513.49609375 359.74609375 C512.79458178 362.93327805 511.52954998 363.94474064 509 366 C506.54090744 367.49810125 504.09713363 368.89321374 501.5625 370.25 C499.94263453 371.13397936 498.32284861 372.01810449 496.703125 372.90234375 C495.35250977 373.63493408 495.35250977 373.63493408 493.97460938 374.38232422 C488.86642345 377.16029861 483.77616951 379.97084316 478.68493652 382.77972412 C476.79851207 383.82021529 474.91147573 384.85959084 473.02441406 385.89892578 C465.42354954 390.0887089 457.85573466 394.33207532 450.3125 398.625 C441.17899325 403.82019832 431.9483607 408.81691315 422.68408203 413.77441406 C414.68973137 418.06290794 406.77768878 422.47978563 398.89233398 426.96484375 C391.14630853 431.36576863 383.36375581 435.69803242 375.5625 440 C374.95027588 440.33764374 374.33805176 440.67528748 373.70727539 441.02316284 C364.22942011 446.24695965 354.71993181 451.41076544 345.19702148 456.55200195 C338.37239874 460.24165942 331.59437223 464.00513551 324.84375 467.828125 C320.61719224 470.22142427 316.37211476 472.58092192 312.125 474.9375 C311.36920654 475.35700928 310.61341309 475.77651855 309.8347168 476.20874023 C306.841477 477.86973801 303.84778034 479.52991111 300.85400391 481.18994141 C290.19997633 487.09846397 279.56345156 493.03749846 268.94116211 499.00292969 C265.96335401 500.67328455 262.98223357 502.33756131 260 504 C258.9672998 504.57943359 257.93459961 505.15886719 256.87060547 505.75585938 C255.8807666 506.30564453 254.89092773 506.85542969 253.87109375 507.421875 C252.98220459 507.9178418 252.09331543 508.41380859 251.17749023 508.92480469 C249 510 249 510 247 510 C251.66358474 520.99592823 256.80131617 531.71692079 262.1875 542.375 C267.20182444 552.29847297 272.05013589 562.26817688 276.6875 572.375 C281.15335988 582.10553013 285.79650555 591.7201157 290.62182617 601.27709961 C295.42574154 610.80170791 300.02041137 620.42032312 304.59814453 630.05517578 C307.03197803 635.16783681 309.48548832 640.2710391 311.9375 645.375 C312.69123901 646.94531982 312.69123901 646.94531982 313.46020508 648.54736328 C316.38568548 654.64199697 319.31641077 660.73407276 322.2512207 666.82421875 C323.71421628 669.86808512 325.16764382 672.91640943 326.62109375 675.96484375 C328.82959562 680.58878852 331.0768139 685.19130571 333.34846497 689.78453064 C334.9375305 693.00751132 336.50836817 696.23920233 338.07681274 699.47225952 C338.85049549 701.05679672 339.63173715 702.63766847 340.42098999 704.21450806 C347.8862875 719.14689507 347.8862875 719.14689507 347.76074219 727.90283203 C346.62885328 731.02315479 344.95445753 731.58012798 342 733 C338.69971561 733.37752342 338.69971561 733.37752342 334.87135315 733.38095093 C333.81161322 733.38797089 333.81161322 733.38797089 332.7304644 733.39513266 C330.36902673 733.40707481 328.00817024 733.39762878 325.64672852 733.38818359 C323.95131085 733.39224969 322.25589584 733.39759178 320.56048584 733.40411377 C315.95922004 733.41778971 311.35815605 733.41248729 306.75688672 733.40297651 C301.94037155 733.39538014 297.12387364 733.40242558 292.30735779 733.40713501 C284.2178131 733.41259314 276.12835057 733.40539997 268.03881836 733.39111328 C258.68944159 733.37479218 249.34026113 733.38007112 239.99088913 733.3965925 C231.96186919 733.41021228 223.9329083 733.41212444 215.90388054 733.40427649 C211.10937053 733.39960198 206.31495275 733.39896893 201.52044868 733.40888596 C197.01174877 733.41756029 192.50330156 733.41152516 187.99462891 733.39420319 C186.34105282 733.39024061 184.68745543 733.39136849 183.03388786 733.39799118 C180.77418285 733.40620616 178.51528432 733.39588641 176.25563049 733.38095093 C174.99189385 733.37981985 173.72815722 733.37868877 172.42612553 733.37752342 C168.65551566 732.96204141 166.233257 731.94983925 163 730 C161.63790894 728.22644043 161.63790894 728.22644043 160.76513672 726.23242188 C160.4234848 725.47792252 160.08183289 724.72342316 159.72982788 723.94606018 C159.38328156 723.12854782 159.03673523 722.31103546 158.6796875 721.46875 C158.29890045 720.61381454 157.9181134 719.75887909 157.52578735 718.8780365 C156.29045752 716.09306837 155.08275336 713.29702316 153.875 710.5 C153.02589748 708.57220028 152.17497567 706.64520088 151.32226562 704.71899414 C149.63400873 700.89793182 147.95608367 697.07262453 146.28808594 693.24267578 C144.37346185 688.8481341 142.43609677 684.46452271 140.4765625 680.08984375 C135.48743589 668.94525987 130.57037914 657.76884082 125.65893555 646.58984375 C120.7262157 635.36529074 115.76872251 624.15169019 110.8125 612.9375 C110.37646454 611.95088379 109.94042908 610.96426758 109.49118042 609.94775391 C106.99438283 604.29838653 104.49730698 598.64914222 102 593 C98.28776463 593.5796391 95.56480556 594.59838608 92.32421875 596.484375 C91.42654785 597.00056396 90.52887695 597.51675293 89.60400391 598.04858398 C88.64155762 598.61005127 87.67911133 599.17151855 86.6875 599.75 C84.6065497 600.94589333 82.52448363 602.13984686 80.44140625 603.33203125 C79.37293457 603.94385254 78.30446289 604.55567383 77.20361328 605.18603516 C72.21666159 608.00977019 67.17340786 610.72563842 62.125 613.4375 C52.9304348 618.38824763 43.80178278 623.44593514 34.69873047 628.56274414 C26.73542586 633.03603433 18.74936887 637.46667411 10.75 641.875 C9.84584854 642.373414 9.84584854 642.373414 8.9234314 642.88189697 C3.37053207 645.94272506 -2.18376539 649.00101 -7.73925781 652.05712891 C-11.45178831 654.09946742 -15.16363689 656.14304092 -18.875 658.1875 C-19.48209808 658.52182037 -20.08919617 658.85614075 -20.71469116 659.20059204 C-28.69653018 663.59804157 -36.64346576 668.05272186 -44.5625 672.5625 C-53.55894832 677.6830301 -62.6594495 682.59486851 -71.79751587 687.45626831 C-80.79248357 692.24417683 -89.6953985 697.17315328 -98.54760742 702.2199707 C-106.43188936 706.70567697 -114.39464728 711.03572051 -122.37866211 715.34082031 C-130.40852508 719.67209163 -138.39280514 724.07915968 -146.35888672 728.52636719 C-151.41404673 731.346939 -156.47261451 734.16138125 -161.53182983 736.97467041 C-163.3430077 737.98220314 -165.15357618 738.9908246 -166.96411133 739.99951172 C-168.07681396 740.61842285 -169.1895166 741.23733398 -170.3359375 741.875 C-171.82939697 742.70644531 -171.82939697 742.70644531 -173.35302734 743.5546875 C-177.93074265 746.05423321 -180.88238418 747.34788198 -186.1875 747.5 C-187.25355469 747.5515625 -188.31960937 747.603125 -189.41796875 747.65625 C-194.54730352 746.71652455 -197.86901288 744.07374107 -202 741 C-202.74967041 740.45730469 -203.49934082 739.91460938 -204.27172852 739.35546875 C-206.58915187 737.66952645 -208.88961022 735.9624523 -211.1875 734.25 C-216.75940357 730.11977777 -222.34104974 726.01024658 -228 722 C-235.98806122 716.3321568 -243.85226351 710.49710099 -251.72949219 704.67675781 C-255.00361612 702.25883489 -258.28142764 699.84598447 -261.5625 697.4375 C-262.45678711 696.78104492 -262.45678711 696.78104492 -263.36914062 696.11132812 C-267.44461909 693.12554979 -271.53916995 690.16705177 -275.63989258 687.21606445 C-283.59122664 681.49357103 -291.47853698 675.69722261 -299.29296875 669.7890625 C-301.67486854 667.98918497 -304.07103855 666.21304213 -306.48828125 664.4609375 C-317.45525292 656.45330739 -317.45525292 656.45330739 -320 652 C-321.21027672 644.21310835 -318.91926236 638.36647834 -315.5 631.5 C-315.01297607 630.48156006 -314.52595215 629.46312012 -314.02416992 628.41381836 C-312.94565594 626.15898685 -311.85958208 623.90776011 -310.76708984 621.65966797 C-308.89664158 617.80239902 -307.08022007 613.92076065 -305.26953125 610.03515625 C-296.91148201 592.11870592 -288.33744446 574.3113351 -279.68832397 556.53396606 C-273.57641881 543.96606662 -267.58397042 531.34106524 -261.59375 518.71484375 C-259.95844264 515.26817729 -258.32302774 511.82156189 -256.6875 508.375 C-256.27598694 507.50776306 -255.86447388 506.64052612 -255.44049072 505.74700928 C-248.54272984 491.21378259 -241.57518931 476.71609059 -234.56591797 462.23632812 C-226.91478799 446.42351568 -219.36733084 430.56430508 -211.89920044 414.66442871 C-206.7903561 403.78760255 -201.63840642 392.9326977 -196.44140625 382.09765625 C-194.11162314 377.23928431 -191.80273123 372.37124069 -189.5 367.5 C-182.39260765 352.47171859 -175.19548733 337.48624721 -168 322.5 C-166.48364223 319.34102229 -164.96736206 316.18200737 -163.45117188 313.02294922 C-162.52052413 311.08430852 -161.58956267 309.14581837 -160.65820312 307.20751953 C-156.17494135 297.8752562 -151.71317774 288.53350629 -147.31640625 279.16015625 C-146.99324936 278.47130844 -146.67009247 277.78246063 -146.33714294 277.07273865 C-145.66878152 275.6479497 -145.00042114 274.22316027 -144.33206177 272.79837036 C-143.82737869 271.72255203 -143.82737869 271.72255203 -143.3125 270.625 C-142.80624588 269.54567703 -142.80624588 269.54567703 -142.2897644 268.44454956 C-136.88609254 256.93141684 -131.37078737 245.476374 -125.79821777 234.04418945 C-120.74145346 223.66422587 -115.83050877 213.22589647 -111.00317383 202.73681641 C-106.27187611 192.49691044 -101.33979382 182.36011014 -96.38870239 172.22515869 C-91.81767858 162.86377235 -87.33481399 153.47380116 -83 144 C-76.73593251 130.33275605 -70.07789008 116.86237598 -63.4375 103.375 C-55.95670832 88.18009761 -48.55018556 72.97816498 -41.54296875 57.55859375 C-37.8379367 49.41041216 -33.92975904 41.35955393 -30.03515625 33.30078125 C-27.89485778 28.87134866 -25.78178189 24.43000065 -23.68359375 19.98046875 C-23.14025391 18.83328369 -22.59691406 17.68609863 -22.03710938 16.50415039 C-20.99307823 14.29865053 -19.9537925 12.09089625 -18.91992188 9.88061523 C-18.21512695 8.39670288 -18.21512695 8.39670288 -17.49609375 6.8828125 C-16.88012329 5.57401123 -16.88012329 5.57401123 -16.25170898 4.23876953 C-14.53232136 1.16352386 -13.0855499 -0.60799587 -9.75 -1.8125 C-5.89240546 -2.07551781 -3.55214401 -1.58577858 0 0 Z M-7 351 C-13.41062629 363.21179164 -18.88116545 375.8385003 -24.43701172 388.45507812 C-26.86192939 393.9548914 -29.30641978 399.44595988 -31.75 404.9375 C-32.74489916 407.17573347 -33.73968732 409.41401629 -34.734375 411.65234375 C-37.31347656 417.45532227 -37.31347656 417.45532227 -39.89257812 423.25830078 C-40.21912888 423.99306641 -40.54567963 424.72783203 -40.88212585 425.48486328 C-41.55751256 427.00442973 -42.23297918 428.52396067 -42.90852356 430.04345703 C-44.62081258 433.89517174 -46.33174872 437.74747597 -48.03979492 441.60107422 C-50.94384666 448.14966734 -53.85221451 454.69547971 -56.82217407 461.21450806 C-57.69737372 463.13590157 -58.56894482 465.05889908 -59.43945312 466.98242188 C-60.49656977 469.31418458 -61.56130188 471.64251451 -62.63476562 473.96679688 C-63.09689453 474.98966797 -63.55902344 476.01253906 -64.03515625 477.06640625 C-64.4412915 477.95271729 -64.84742676 478.83902832 -65.26586914 479.75219727 C-66.28825516 482.12711906 -66.28825516 482.12711906 -65 485 C-52.33088208 482.01032796 -39.66504107 479.00689035 -27 476 C-25.65391088 475.68049893 -24.30782118 475.36100034 -22.96173096 475.04150391 C-14.69379675 473.07888033 -6.42644057 471.11384674 1.84002781 469.14505768 C5.68509977 468.22932808 9.53037037 467.31445262 13.37612915 466.40161133 C17.05415245 465.52852995 20.73160027 464.6530644 24.40863228 463.77581787 C25.7848237 463.44792557 27.1612194 463.12088941 28.53782463 462.79473877 C30.43428942 462.34526751 32.3299598 461.89244831 34.22558594 461.43945312 C35.29677673 461.1845813 36.36796753 460.92970947 37.47161865 460.66711426 C39.97053817 460.09982649 39.97053817 460.09982649 42 459 C39.68505554 451.53724685 36.6745755 444.54317862 33.4375 437.4375 C32.87129198 436.1857516 32.30555149 434.93379163 31.74023438 433.68164062 C30.50316202 430.94292711 29.26378335 428.20527283 28.02294922 425.46826172 C24.71893479 418.17602223 21.44010319 410.87242793 18.1567688 403.57086182 C17.00277509 401.00616751 15.84720619 398.44218864 14.69116211 395.87841797 C11.11336826 387.94132906 7.54920221 379.99897024 4.03125 372.03515625 C3.13537688 370.01313819 2.23911523 367.99129275 1.34277344 365.96948242 C0.51808737 364.10342713 -0.29962374 362.23441844 -1.1171875 360.36523438 C-1.60445313 359.26630859 -2.09171875 358.16738281 -2.59375 357.03515625 C-3.01333984 356.0800415 -3.43292969 355.12492676 -3.86523438 354.14086914 C-4.81333322 351.85131956 -4.81333322 351.85131956 -7 351 Z " fill="#333333" transform="translate(427,136)"/>
<path d="M0 0 C4.33897523 5.34920112 7.21078018 12.11030561 10.25 18.25 C10.72671143 19.20729004 11.20342285 20.16458008 11.69458008 21.15087891 C15.18923665 28.2240219 18.50691853 35.3647235 21.65527344 42.59863281 C24.18316291 48.36121469 26.96323092 53.98504761 29.79147339 59.60444641 C33.7072483 67.38727576 37.51199014 75.22290166 41.3125 83.0625 C41.68194733 83.82379211 42.05139465 84.58508423 42.43203735 85.3694458 C47.30866305 95.41835351 52.16097524 105.47837485 56.96801758 115.56079102 C60.92099931 123.84944549 64.91483711 132.11815797 68.91162109 140.38574219 C72.69148945 148.20545909 76.4524653 156.03374703 80.1875 163.875 C85.22740835 174.44801873 90.36387992 184.97351123 95.5 195.5 C101.53510329 207.86930374 107.54640735 220.24823369 113.4609375 232.67578125 C115.28703379 236.51259489 117.12789703 240.34197827 118.9765625 244.16796875 C123.84525965 254.25185932 128.65305893 264.35142998 133.25 274.5625 C136.34551092 281.43843937 139.54577986 288.23316782 142.96191406 294.95532227 C145.73647754 300.42598934 148.37691061 305.95530262 151 311.5 C153.91576875 317.65845201 156.86533447 323.79299588 159.9375 329.875 C163.56596618 337.06684365 167.04642752 344.32538928 170.51147461 351.59716797 C174.31506518 359.57738984 178.15193915 367.54116823 182 375.5 C186.87174459 385.57745083 191.7217646 395.66497274 196.53710938 405.76953125 C198.6509873 410.20111359 200.78399813 414.61852399 203 419 C210.87824306 418.35511249 218.35499897 416.62234717 226.01953125 414.74609375 C227.4107563 414.40999516 228.80211236 414.07443845 230.19358826 413.73937988 C233.17304894 413.02097968 236.15170437 412.2993642 239.12976074 411.57516479 C246.34188317 409.82166793 253.5581926 408.0855175 260.77405167 406.34747505 C263.26881608 405.74640775 265.76342631 405.14470351 268.25802612 404.54295349 C283.87822406 400.77729164 299.51720931 397.09353347 315.16096878 393.42720032 C321.46977579 391.94832113 327.7779647 390.46680794 334.0859375 388.984375 C335.12595885 388.73996799 335.12595885 388.73996799 336.18699074 388.49062347 C352.7588736 384.59489711 369.31798588 380.64587329 385.875 376.6875 C386.57846432 376.51933147 387.28192863 376.35116295 388.00671005 376.17789841 C398.00502666 373.78757561 408.00262658 371.39426424 418 369 C421.36144975 368.19506471 424.72290803 367.39016507 428.0843811 366.58532715 C430.15697087 366.08906845 432.22954213 365.59273247 434.30209351 365.09631348 C439.06436886 363.95590336 443.8270465 362.81724117 448.59082031 361.68310547 C450.36133951 361.26144104 452.13184756 360.83972977 453.90234375 360.41796875 C454.75124176 360.21578735 455.60013977 360.01360596 456.47476196 359.80529785 C461.48962721 358.60806804 466.49867892 357.38932936 471.50382996 356.15213013 C474.6453205 355.37712595 477.78922778 354.61224602 480.93356323 353.84887695 C482.35873033 353.50005248 483.78274295 353.14646499 485.20535278 352.78735352 C493.62178016 350.66367463 501.31164641 349.51865916 510 350 C510 350.99 510 351.98 510 353 C507.69 353 505.38 353 503 353 C503 353.66 503 354.32 503 355 C501.824375 355.12375 500.64875 355.2475 499.4375 355.375 C495.47856104 355.86899766 491.82236687 356.83963863 488 358 C483.21805258 359.37026564 479.02833336 360.25141667 474 360 C474 360.66 474 361.32 474 362 C472.824375 362.103125 471.64875 362.20625 470.4375 362.3125 C466.93416313 362.74048182 464.23843817 363.74064031 461.03125 365.2421875 C456.55984172 366.91036674 451.70000405 367.30111464 447 368 C444.93585442 368.34444638 442.87320905 368.69805731 440.8125 369.0625 C439.91144531 369.21847656 439.01039063 369.37445313 438.08203125 369.53515625 C436.02137224 369.79994862 436.02137224 369.79994862 435 371 C434.01 371.12375 433.02 371.2475 432 371.375 C429.097565 371.7458994 426.56172819 372.44096738 423.8125 373.4375 C419.24439418 375.0406172 414.69631306 375.79987285 409.921875 376.5390625 C407.34632752 376.94536545 404.80116941 377.40087471 402.25 377.9375 C401.61578125 378.07027344 400.9815625 378.20304687 400.328125 378.33984375 C397.75579154 379.02556403 397.75579154 379.02556403 394.41796875 380.43359375 C389.42355476 382.34178751 384.31495052 383.21501204 379.0625 384.125 C377.17777981 384.45752302 375.29362629 384.79327993 373.41015625 385.1328125 C372.58652588 385.27605957 371.76289551 385.41930664 370.91430664 385.56689453 C369.0014133 385.82070709 369.0014133 385.82070709 368 387 C365.32941149 387.14115161 362.67567762 387.04247107 360 387 C360 387.66 360 388.32 360 389 C355.41933484 390.6436084 350.83793837 391.73948825 346.0625 392.625 C345.38509766 392.7590625 344.70769531 392.893125 344.00976562 393.03125 C339.59877984 393.86016008 335.48735383 394.12871158 331 394 C331 394.66 331 395.32 331 396 C329.865625 396.144375 328.73125 396.28875 327.5625 396.4375 C324.19222799 396.61171478 324.19222799 396.61171478 323 398 C320.60623442 398.4998303 318.22000709 398.95179348 315.8125 399.375 C310.21403016 400.39290361 304.63163591 401.45616901 299.0625 402.625 C297.91910156 402.86476563 296.77570312 403.10453125 295.59765625 403.3515625 C293.08684563 403.74155466 293.08684563 403.74155466 292 405 C291.01 405.12375 290.02 405.2475 289 405.375 C286.13399358 405.74630448 283.5979265 406.41042087 280.875 407.375 C273.72455855 409.86848727 266.23365303 411.7572684 258.6875 412.5 C255.11104228 412.98494342 252.42875121 413.90785107 249.125 415.25 C246.80026511 416.07049467 244.55222768 416.51273516 242.125 416.9375 C238.60361039 417.57145668 235.68348605 418.50651575 232.4375 420 C226.33919693 422.6289159 220.00721644 422.99611924 213.46484375 423.60546875 C210.17678546 423.61569198 210.17678546 423.61569198 209 425 C206.66702567 425.04092937 204.33294775 425.04241723 202 425 C200.61406204 422.22812407 199.22838162 419.45612263 197.84375 416.68359375 C196.57837861 414.15216625 195.30663845 411.62405073 194.03125 409.09765625 C190.81557116 402.71907824 187.63000394 396.32632124 184.5625 389.875 C184.08941406 388.88242187 183.61632812 387.88984375 183.12890625 386.8671875 C181.96037301 383.89935568 181.40734416 381.1557467 181 378 C180.34 378 179.68 378 179 378 C178.66226562 377.25234375 178.32453125 376.5046875 177.9765625 375.734375 C177.53054688 374.74953125 177.08453125 373.7646875 176.625 372.75 C176.18414063 371.77546875 175.74328125 370.8009375 175.2890625 369.796875 C174.52371753 368.13630833 173.71937769 366.49148977 172.8359375 364.890625 C172 363 172 363 172 359 C171.34 359 170.68 359 170 359 C169.01330241 357.10807525 168.0359398 355.21128022 167.0625 353.3125 C166.51722656 352.25675781 165.97195313 351.20101563 165.41015625 350.11328125 C164.1529424 347.33765953 163.43930431 344.99727874 163 342 C162.34 342 161.68 342 161 342 C161 340.35 161 338.7 161 337 C160.34 337 159.68 337 159 337 C158.54625 335.9275 158.0925 334.855 157.625 333.75 C156.75087221 331.69517827 155.85577339 329.72672852 154.8125 327.75 C154 326 154 326 154 323 C153.34 323 152.68 323 152 323 C151.83491943 322.44965088 151.66983887 321.89930176 151.49975586 321.33227539 C149.72039174 315.67427032 147.42462135 310.62180996 144.5625 305.4375 C143.03557053 302.62825877 141.51416193 299.81614412 140 297 C139.41774658 295.92709717 139.41774658 295.92709717 138.82373047 294.83251953 C138.45779785 294.13626465 138.09186523 293.44000977 137.71484375 292.72265625 C137.38476318 292.10269775 137.05468262 291.48273926 136.71459961 290.84399414 C136 289 136 289 136 285 C135.34 285 134.68 285 134 285 C133.76925781 284.39414062 133.53851562 283.78828125 133.30078125 283.1640625 C130.86828834 276.91457479 128.06733475 270.95968732 125 265 C124.443125 263.865625 123.88625 262.73125 123.3125 261.5625 C121.99222311 258.86440612 121.99222311 258.86440612 120 256 C119.875 253.3125 119.875 253.3125 120 251 C119.34 251 118.68 251 118 251 C116.33333333 247.66666667 114.66666667 244.33333333 113 241 C112.42378906 239.97132813 112.42378906 239.97132813 111.8359375 238.921875 C111 237 111 237 111 233 C110.34 233 109.68 233 109 233 C108.59910156 232.04480469 108.19820312 231.08960938 107.78515625 230.10546875 C105.78986457 225.45056925 103.6150425 220.88427356 101.4375 216.3125 C101.03853516 215.47138672 100.63957031 214.63027344 100.22851562 213.76367188 C98.14654409 209.3229942 98.14654409 209.3229942 95.87133789 204.98120117 C95 203 95 203 95 199 C94.34 199 93.68 199 93 199 C93 198.01 93 197.02 93 196 C92.34 196 91.68 196 91 196 C90.80664062 195.45730469 90.61328125 194.91460937 90.4140625 194.35546875 C90.15367187 193.64003906 89.89328125 192.92460937 89.625 192.1875 C89.24214844 191.12595703 89.24214844 191.12595703 88.8515625 190.04296875 C87.9734231 187.75226641 87.9734231 187.75226641 86 185 C85.875 182.3125 85.875 182.3125 86 180 C85.34 180 84.68 180 84 180 C83.5153125 178.9584375 83.030625 177.916875 82.53125 176.84375 C78.70402893 168.64985561 74.80961793 160.50153697 70.703125 152.44335938 C68.6322624 148.35748732 66.80382085 144.20891531 65 140 C63.7457114 137.37674886 62.4378824 134.78182604 61.125 132.1875 C60.77566406 131.49043945 60.42632812 130.79337891 60.06640625 130.07519531 C58.52243451 126.99722213 56.96348094 123.93019442 55.3671875 120.87890625 C54.69042969 119.57759766 54.69042969 119.57759766 54 118.25 C53.608125 117.51265625 53.21625 116.7753125 52.8125 116.015625 C52 114 52 114 52 110 C51.34 110 50.68 110 50 110 C48.8206851 107.77675074 47.65659082 105.54753361 46.5 103.3125 C46.16613281 102.68666016 45.83226562 102.06082031 45.48828125 101.41601562 C43.6304738 97.79518683 42.56249786 95.08595745 43 91 C42.34 91 41.68 91 41 91 C40.57847656 89.99324219 40.15695312 88.98648438 39.72265625 87.94921875 C38.09961168 84.16275011 36.30016677 80.48575898 34.4375 76.8125 C34.13392578 76.20986328 33.83035156 75.60722656 33.51757812 74.98632812 C31.70207005 71.37859112 31.70207005 71.37859112 29.78515625 67.82421875 C29 66 29 66 29 62 C28.34 62 27.68 62 27 62 C25.82379175 59.58757287 24.6589044 57.17072309 23.5 54.75 C23.16613281 54.06808594 22.83226562 53.38617188 22.48828125 52.68359375 C20.80625256 49.1479008 20 46.98070714 20 43 C19.34 43 18.68 43 18 43 C18 42.01 18 41.02 18 40 C17.34 40 16.68 40 16 40 C15.80664062 39.45730469 15.61328125 38.91460937 15.4140625 38.35546875 C15.15367187 37.64003906 14.89328125 36.92460937 14.625 36.1875 C14.24214844 35.12595703 14.24214844 35.12595703 13.8515625 34.04296875 C12.9734231 31.75226641 12.9734231 31.75226641 11 29 C10.875 26.3125 10.875 26.3125 11 24 C10.34 24 9.68 24 9 24 C7.5393715 21.35261084 7 20.10551666 7 17 C6.34 17 5.68 17 5 17 C2 10.5 2 10.5 2 6 C1.34 6 0.68 6 0 6 C-0.66 4.35 -1.32 2.7 -2 1 C-5.04521442 1.65323808 -5.04521442 1.65323808 -6.02734375 3.71484375 C-6.32769531 4.44832031 -6.62804687 5.18179688 -6.9375 5.9375 C-7.27394531 6.741875 -7.61039062 7.54625 -7.95703125 8.375 C-8.66806502 10.16456813 -9.37357044 11.95634032 -10.07421875 13.75 C-10.42097656 14.636875 -10.76773437 15.52375 -11.125 16.4375 C-11.59292969 17.67306641 -11.59292969 17.67306641 -12.0703125 18.93359375 C-13 21 -13 21 -15 23 C-15.62875919 24.46043613 -16.20508162 25.94375445 -16.75 27.4375 C-18.61730569 32.30232272 -20.97497393 36.6884276 -23.6328125 41.1640625 C-25.01896225 44.03933312 -25.68509903 46.80536584 -26.39697266 49.90380859 C-27.4424983 53.53817426 -29.27868787 56.71839222 -31.125 60 C-31.49753906 60.67933594 -31.87007813 61.35867187 -32.25390625 62.05859375 C-33.16113878 63.7102222 -34.07940827 65.35578035 -35 67 C-35.66 67 -36.32 67 -37 67 C-37 68.32 -37 69.64 -37 71 C-37.66 71 -38.32 71 -39 71 C-39.14695312 71.87011719 -39.14695312 71.87011719 -39.296875 72.7578125 C-40.31577268 78.0806745 -41.80211377 81.54234041 -45 86 C-45.7285366 87.68139663 -46.45465185 89.36396531 -47.15893555 91.05566406 C-48.59863197 94.38389115 -50.28504671 97.58615139 -51.9375 100.8125 C-54.6170993 106.09320897 -57.03243741 111.3637281 -59.140625 116.90234375 C-60.46335576 120.13100928 -62.22114925 122.99818936 -64 126 C-66.27070043 130.21321369 -68.21610741 134.47155778 -69.9375 138.9375 C-71.57985669 143.15331322 -73.58226608 146.98782834 -75.83984375 150.90234375 C-76.90140992 152.82174117 -77.78934066 154.72429175 -78.625 156.75 C-80 160 -80 160 -81.44921875 162.33984375 C-83.0628147 165.10775016 -84.13193738 167.79140698 -85.1875 170.8125 C-85.53167969 171.78832031 -85.87585938 172.76414062 -86.23046875 173.76953125 C-86.48441406 174.50558594 -86.73835937 175.24164063 -87 176 C-87.66 176 -88.32 176 -89 176 C-89.10054687 176.88042969 -89.20109375 177.76085937 -89.3046875 178.66796875 C-90.04516425 182.21643317 -91.17028589 184.28400796 -93.125 187.3125 C-96.57583285 192.98121925 -99.12107043 198.76504214 -101.51416016 204.94848633 C-102.83198752 208.31772368 -104.20732781 211.4782472 -106.0546875 214.59375 C-107.95608047 217.92309673 -109.21993533 221.06008415 -110.4375 224.6875 C-118.3713978 247.61036163 -118.3713978 247.61036163 -123.0625 251.875 C-125.88807737 254.97402034 -126.14334228 257.91440162 -127 262 C-127.33 262.66 -127.66 263.32 -128 264 C-128.66 264 -129.32 264 -130 264 C-130.309375 265.093125 -130.61875 266.18625 -130.9375 267.3125 C-131.58337897 269.55407994 -132.2623117 271.7869351 -133 274 C-133.66 274 -134.32 274 -135 274 C-135.2475 274.845625 -135.495 275.69125 -135.75 276.5625 C-137 280 -137 280 -139 283.3125 C-140.57925276 285.95227286 -141.33996881 288.16293591 -141.875 291.1875 C-143.01893988 297.30969677 -146.07385621 302.56178937 -149 308 C-149.66 308 -150.32 308 -151 308 C-151.66 309.98 -152.32 311.96 -153 314 C-153.66 314 -154.32 314 -155 314 C-155.13277344 314.77085937 -155.26554688 315.54171875 -155.40234375 316.3359375 C-155.57894531 317.33882813 -155.75554687 318.34171875 -155.9375 319.375 C-156.11152344 320.37273437 -156.28554688 321.37046875 -156.46484375 322.3984375 C-157 325 -157 325 -158 327 C-158.66 327 -159.32 327 -160 327 C-160.18175781 327.83144531 -160.36351562 328.66289062 -160.55078125 329.51953125 C-160.80214844 330.60621094 -161.05351562 331.69289063 -161.3125 332.8125 C-161.55613281 333.89144531 -161.79976562 334.97039062 -162.05078125 336.08203125 C-163.02832039 339.08705896 -163.77889832 339.91488414 -166 342 C-167.2122949 344.48901793 -167.2122949 344.48901793 -168.1875 347.1875 C-168.70376953 348.53908203 -168.70376953 348.53908203 -169.23046875 349.91796875 C-169.48441406 350.60503906 -169.73835937 351.29210937 -170 352 C-170.99 352 -171.98 352 -173 352 C-173.13664063 352.58136719 -173.27328125 353.16273438 -173.4140625 353.76171875 C-174.64891286 358.47884711 -176.5528853 362.97536214 -178.5 367.4375 C-179.62699132 370.11410438 -180.56417069 372.68061181 -181.4375 375.4375 C-183.16718516 380.75333869 -185.53728387 385.58871047 -188.43359375 390.36328125 C-190.10067058 393.16945795 -191.59536283 396.021987 -193.0625 398.9375 C-193.56910156 399.93652344 -194.07570313 400.93554688 -194.59765625 401.96484375 C-195.97076362 404.93672238 -197.02259655 407.878337 -198 411 C-198.66666667 413 -199.33333333 415 -200 417 C-200.99 417 -201.98 417 -203 417 C-203.268125 417.9075 -203.53625 418.815 -203.8125 419.75 C-205 423 -205 423 -206.5 424.875 C-208.2629442 427.37250429 -208.63114117 429.25486523 -209.1875 432.25 C-211.06854944 440.48594621 -215.05982407 447.5967098 -219 455 C-219.33 455.66 -219.66 456.32 -220 457 C-220.66 457 -221.32 457 -222 457 C-222.28875 457.94875 -222.5775 458.8975 -222.875 459.875 C-224 463 -224 463 -226 465 C-226.70131677 466.90357409 -227.40015942 468.80812436 -228.08203125 470.71875 C-229.37441455 473.93046 -231.08858963 476.84529505 -232.80859375 479.84375 C-234.4421879 482.80028762 -235.69760082 485.88556718 -237 489 C-237.63619233 490.29644236 -238.28254391 491.58793513 -238.9375 492.875 C-240.35931544 495.67554556 -241.6807449 498.49662541 -242.9375 501.375 C-244.7616693 505.54246979 -246.77516574 509.59363514 -248.8515625 513.640625 C-250.02677452 516.05500616 -251.00847059 518.5054379 -252 521 C-254.16385839 525.61287642 -256.51334448 530.1317102 -258.96484375 534.59765625 C-262.5526487 541.15273649 -265.82931138 547.48008734 -268.11328125 554.6328125 C-269.11678977 557.31178239 -270.50528615 559.56702827 -272 562 C-272.69579454 564.19130534 -272.69579454 564.19130534 -273 566 C-273.66 566 -274.32 566 -275 566 C-275.12375 566.94875 -275.2475 567.8975 -275.375 568.875 C-276 572 -276 572 -278 574 C-278.7831468 575.79758545 -278.7831468 575.79758545 -279.4375 577.8125 C-280.6278202 581.1538557 -282.14783285 583.96918102 -284 587 C-284.69579454 589.19130534 -284.69579454 589.19130534 -285 591 C-285.66 591 -286.32 591 -287 591 C-287.03738281 591.60328125 -287.07476562 592.2065625 -287.11328125 592.828125 C-287.50361681 597.57338078 -287.90055439 600.28066527 -291 604 C-291.28230469 605.04285156 -291.56460938 606.08570313 -291.85546875 607.16015625 C-292.95980539 611.23269327 -294.80820569 614.65516646 -296.875 618.3125 C-299.66670546 623.39038079 -302.16158672 628.4155524 -304.19140625 633.85546875 C-304.95918466 635.89175063 -305.83337872 637.83986342 -306.75 639.8125 C-308.02972349 643.07579489 -308.60821756 644.58069287 -308 648 C-305.95756112 649.91385195 -304.09161078 651.42650388 -301.8125 653 C-300.64970242 653.82964376 -299.48951074 654.66295269 -298.33203125 655.5 C-297.76693848 655.90863281 -297.2018457 656.31726563 -296.61962891 656.73828125 C-294.20638861 658.61823691 -292.13595026 660.8160923 -290 663 C-287.24689917 665.15838815 -287.24689917 665.15838815 -284.5 665.3125 C-281.04641638 666.26223549 -280.79503427 667.9622497 -279 671 C-276.13676275 673.45720361 -273.07795548 675.47558923 -269.6875 677.125 C-268 678 -268 678 -266 681 C-264.33196666 681.6923912 -262.66063566 682.3840554 -260.94921875 682.9609375 C-258.12736753 684.46517082 -256.25218402 686.73500128 -254 689 C-251.51973033 691.02109079 -248.95161727 692.91648705 -246.375 694.8125 C-245.67149414 695.33440918 -244.96798828 695.85631836 -244.24316406 696.39404297 C-242.16507344 697.933422 -240.08266935 699.46682474 -238 701 C-236.88261369 701.82915923 -235.76540751 702.6585613 -234.6484375 703.48828125 C-229.07192449 707.64800537 -229.07192449 707.64800537 -223 711 C-223 711.66 -223 712.32 -223 713 C-222.21109375 713.37318359 -222.21109375 713.37318359 -221.40625 713.75390625 C-218.34725151 715.33803047 -215.42854447 717.12791187 -212.5 718.9375 C-211.3759375 719.62714844 -210.251875 720.31679688 -209.09375 721.02734375 C-206 723 -206 723 -203.75 724.703125 C-201.99325239 726.14864948 -201.99325239 726.14864948 -199.5 726.8125 C-196.08734887 728.43350928 -195.02092073 730.87083242 -193 734 C-190.89960669 735.38868516 -190.89960669 735.38868516 -189 736 C-189 736.66 -189 737.32 -189 738 C-185.04 738 -181.08 738 -177 738 C-177 737.34 -177 736.68 -177 736 C-175.9275 735.566875 -174.855 735.13375 -173.75 734.6875 C-171.49066629 733.7302321 -169.84137626 732.87869949 -167.875 731.375 C-165.62122847 729.72223421 -163.74077726 729.38066351 -161 729 C-161 728.34 -161 727.68 -161 727 C-159.68 727 -158.36 727 -157 727 C-157 726.34 -157 725.68 -157 725 C-154.69 724.34 -152.38 723.68 -150 723 C-150 722.34 -150 721.68 -150 721 C-146.53941116 719.47734091 -143.25386569 718.07521946 -139.625 717 C-138.75875 716.67 -137.8925 716.34 -137 716 C-136.67 715.01 -136.34 714.02 -136 713 C-133.99609375 712.04296875 -133.99609375 712.04296875 -131.4375 711.1875 C-127.80466769 709.8425791 -125.00647568 708.44084017 -122 706 C-118.41403978 703.11971066 -114.88664154 701.64702266 -110.59375 700.0703125 C-106.89659748 698.54468029 -103.60588849 696.49164977 -100.2265625 694.3671875 C-94.74285714 691 -94.74285714 691 -91 691 C-91 690.34 -91 689.68 -91 689 C-90.18015625 688.60167969 -89.3603125 688.20335937 -88.515625 687.79296875 C-87.43796875 687.26316406 -86.3603125 686.73335937 -85.25 686.1875 C-83.64898437 685.40439453 -83.64898437 685.40439453 -82.015625 684.60546875 C-79.44145667 683.23502421 -77.29413832 681.77693303 -75 680 C-74.2575 679.71125 -73.515 679.4225 -72.75 679.125 C-69.49583557 677.79375091 -66.77672988 675.98200105 -63.8671875 674.0234375 C-62 673 -62 673 -59 673 C-59 672.34 -59 671.68 -59 671 C-57.88625 670.46375 -56.7725 669.9275 -55.625 669.375 C-52.28823511 667.71547622 -49.11278993 665.88741005 -45.9375 663.9375 C-42.04099163 661.55895655 -38.2134307 659.73494205 -34 658 C-32.32665961 657.01120795 -30.65848177 656.01351664 -29 655 C-28.01 654.67 -27.02 654.34 -26 654 C-25.3503125 653.3503125 -25.3503125 653.3503125 -24.6875 652.6875 C-19.88613974 647.88613974 -14.13408891 645.69227428 -7.90234375 643.24609375 C-4.96024182 642.06067845 -4.96024182 642.06067845 -2.25390625 640.34765625 C0 639 0 639 2 639 C2 638.34 2 637.68 2 637 C2.56589844 636.80664062 3.13179688 636.61328125 3.71484375 636.4140625 C4.81505859 636.02347656 4.81505859 636.02347656 5.9375 635.625 C7.03384766 635.24214844 7.03384766 635.24214844 8.15234375 634.8515625 C10.18682116 634.14728587 10.18682116 634.14728587 11 632 C13.5625 631.375 13.5625 631.375 16 631 C16 630.34 16 629.68 16 629 C16.54269531 628.81824219 17.08539063 628.63648438 17.64453125 628.44921875 C18.35996094 628.19785156 19.07539063 627.94648437 19.8125 627.6875 C20.87404297 627.32205078 20.87404297 627.32205078 21.95703125 626.94921875 C24.16560064 625.92305745 25.36011054 624.77499399 27 623 C30.39952281 620.66889864 33.84170573 619.33109492 37.703125 617.9375 C45.08487011 614.92454281 51.88011318 610.49188964 58.67578125 606.36328125 C60.712692 605.16852183 62.75123764 604.09153949 64.875 603.0625 C69.36707543 600.88425014 73.62025678 598.32834851 77.91796875 595.79296875 C81.67875942 593.60513235 85.49891603 591.54197798 89.33203125 589.484375 C92.05265381 587.97070505 94.67606832 586.3426589 97.3125 584.6875 C100.87348417 582.51228957 103.74772538 581.22380393 108 581 C111.34493505 584.87252732 113.14517509 589.42778989 115.1875 594.0625 C115.58114746 594.94574951 115.97479492 595.82899902 116.38037109 596.73901367 C119.38840965 603.52308779 122.27027494 610.35689091 125.12207031 617.20776367 C127.63494979 623.21484325 130.35548984 629.09213188 133.14453125 634.9765625 C135.84039717 640.74562713 138.29624289 646.6205672 140.78466797 652.48120117 C143.16597152 658.08320486 145.61661936 663.63508531 148.22265625 669.13671875 C149 671 149 671 149 673 C149.99 673 150.98 673 152 673 C154.70270488 678.73893505 157.22528812 684.49038495 159.4375 690.4375 C161.52450401 696.00727503 164.04398656 701.20760226 166.86328125 706.44140625 C168 709 168 709 168 713 C168.66 713 169.32 713 170 713 C170.25394531 713.63808594 170.50789063 714.27617188 170.76953125 714.93359375 C171.11371094 715.75988281 171.45789063 716.58617187 171.8125 717.4375 C172.14894531 718.26121094 172.48539063 719.08492187 172.83203125 719.93359375 C173.88403088 722.33372488 173.88403088 722.33372488 177 723 C179.2444424 723.10398945 181.49187372 723.14649002 183.73869324 723.15821838 C184.77159334 723.16562535 184.77159334 723.16562535 185.82536012 723.17318195 C188.13772135 723.18856649 190.4500548 723.19692014 192.76245117 723.20532227 C194.41804754 723.21490004 196.07364145 723.22491006 197.72923279 723.23532104 C202.22889598 723.26238709 206.72856967 723.28338746 211.22826934 723.30332303 C215.92883586 723.32517209 220.62936993 723.35256606 225.32991028 723.37937927 C234.23336681 723.42932077 243.13684133 723.4742542 252.04033309 723.51740164 C262.1756605 723.56676156 272.31095535 723.62168431 282.44625127 723.67708123 C303.29747053 723.79092364 324.14872085 723.89775777 345 724 C344.01 720.7 343.02 717.4 342 714 C341.34 714 340.68 714 340 714 C338.50178941 710.62902617 338 708.79557881 338 705 C337.34 705 336.68 705 336 705 C335.16235732 703.04350603 334.33000941 701.08474444 333.5 699.125 C333.0359375 698.03445313 332.571875 696.94390625 332.09375 695.8203125 C331 693 331 693 331 691 C330.34 691 329.68 691 329 691 C328.62875 690.0925 328.2575 689.185 327.875 688.25 C325.91643186 683.62323758 323.55021685 679.21075165 321.20703125 674.76953125 C320 672 320 672 320 668 C319.34 668 318.68 668 318 668 C318 666.68 318 665.36 318 664 C317.34 664 316.68 664 316 664 C315.67 661.69 315.34 659.38 315 657 C314.34 657 313.68 657 313 657 C311.82625827 654.56568361 310.66084237 652.12795818 309.5 649.6875 C309.16613281 648.99720703 308.83226562 648.30691406 308.48828125 647.59570312 C306 642.33984375 306 642.33984375 306 639 C305.34 639 304.68 639 304 639 C303.37931641 637.50919922 303.37931641 637.50919922 302.74609375 635.98828125 C301.02150997 631.9635781 299.05752262 628.08326251 297.0625 624.1875 C294.48599326 619.10412185 292.14802195 614.05269472 290.140625 608.71484375 C288.23061172 604.1687505 285.92679432 599.81042578 283.640625 595.44335938 C281 590.31714607 281 590.31714607 281 587 C280.34 587 279.68 587 279 587 C278.76925781 586.38253906 278.53851562 585.76507812 278.30078125 585.12890625 C276.24448872 579.78904777 273.94353592 574.8897484 270.953125 570.0078125 C270 568 270 568 270 564 C269.34 564 268.68 564 268 564 C267.78085937 563.41734375 267.56171875 562.8346875 267.3359375 562.234375 C264.97551623 556.13182244 262.22110279 550.3554105 259.171875 544.56640625 C258 542 258 542 258 539 C257.34 539 256.68 539 256 539 C256 537.35 256 535.7 256 534 C255.34 534 254.68 534 254 534 C252.8206851 531.77675074 251.65659082 529.54753361 250.5 527.3125 C250.16613281 526.68666016 249.83226562 526.06082031 249.48828125 525.41601562 C247.6304738 521.79518683 246.56249786 519.08595745 247 515 C246.34 515 245.68 515 245 515 C241.6796875 509.921875 241.6796875 509.921875 241 508 C241.79534762 505.22927919 242.6283436 504.23535897 245.06640625 502.69140625 C245.89011719 502.31886719 246.71382812 501.94632813 247.5625 501.5625 C254.00658129 498.53053657 260.16746563 495.21926773 266.125 491.3125 C269.66737011 489.05050463 272.91300585 487.93660283 277 487 C277 486.34 277 485.68 277 485 C278.60032137 484.15930585 280.20541171 483.32768495 281.8125 482.5 C282.70582031 482.0359375 283.59914063 481.571875 284.51953125 481.09375 C287 480 287 480 290 480 C290 479.34 290 478.68 290 478 C291.65 477.67 293.3 477.34 295 477 C295 476.34 295 475.68 295 475 C297.31 474.34 299.62 473.68 302 473 C302 472.34 302 471.68 302 471 C302.56589844 470.80664062 303.13179687 470.61328125 303.71484375 470.4140625 C304.44832031 470.15367187 305.18179688 469.89328125 305.9375 469.625 C306.66839844 469.36976563 307.39929688 469.11453125 308.15234375 468.8515625 C310.18682116 468.14728587 310.18682116 468.14728587 311 466 C313.06640625 465.1484375 313.06640625 465.1484375 315.5625 464.375 C316.38878906 464.11460937 317.21507812 463.85421875 318.06640625 463.5859375 C319.02353516 463.29589844 319.02353516 463.29589844 320 463 C320 462.34 320 461.68 320 461 C321.4562545 460.32880451 322.91507867 459.66318193 324.375 459 C325.18710937 458.62875 325.99921875 458.2575 326.8359375 457.875 C329 457 329 457 331 457 C331 456.34 331 455.68 331 455 C335.20716544 451.87855467 340.05372401 450.51944426 345 449 C345 448.34 345 447.68 345 447 C345.9075 446.62875 346.815 446.2575 347.75 445.875 C351.34183932 444.33036128 354.86142443 442.65235967 358.375 440.9375 C359.41398438 440.43089844 360.45296875 439.92429687 361.5234375 439.40234375 C364.1121655 438.24063055 364.1121655 438.24063055 365 436 C365.66 436 366.32 436 367 436 C367.22558594 435.37222656 367.45117188 434.74445313 367.68359375 434.09765625 C369 432 369 432 371.34765625 431.05859375 C372.69150391 430.75115234 372.69150391 430.75115234 374.0625 430.4375 C376.73056381 429.87986574 376.73056381 429.87986574 379 429 C379.33 428.01 379.66 427.02 380 426 C381.02867187 425.89816406 382.05734375 425.79632812 383.1171875 425.69140625 C387.0774314 424.98621191 389.6373473 423.89540222 393.125 421.9375 C394.25035156 421.3084375 395.37570312 420.679375 396.53515625 420.03125 C401.02329971 417.42986609 405.4067223 414.66020919 409.8046875 411.91015625 C413.81889525 409.51046482 417.95965613 407.47119716 422.1640625 405.4296875 C425.72644957 403.63377336 429.09700538 401.59200473 432.49609375 399.5078125 C438.31669555 396.00273872 444.30098905 392.78955808 450.4375 389.875 C452.85387009 388.70091695 454.05936738 387.93680247 455.9375 385.9375 C459.08469849 382.98104081 462.90396086 382.15529309 467 381 C467 380.34 467 379.68 467 379 C473.75 375 473.75 375 476 375 C476 374.34 476 373.68 476 373 C479.36683915 370.56839395 480.73350364 370 485 370 C485 369.34 485 368.68 485 368 C490.25607184 365.27847664 495.33835603 362.76926374 501 361 C502.75764465 360.39683312 504.50721017 359.76983224 506.25 359.125 C507.10078125 358.81820313 507.9515625 358.51140625 508.828125 358.1953125 C511.37154659 356.79551572 511.99293255 355.67432356 513 353 C513.10884119 354.41493551 513.18597617 355.83232943 513.25 357.25 C513.31960938 358.43335938 513.31960938 358.43335938 513.390625 359.640625 C512.83983791 362.96737903 511.61936487 363.89448183 509 366 C506.54090744 367.49810125 504.09713363 368.89321374 501.5625 370.25 C499.94263453 371.13397936 498.32284861 372.01810449 496.703125 372.90234375 C495.35250977 373.63493408 495.35250977 373.63493408 493.97460938 374.38232422 C488.86642345 377.16029861 483.77616951 379.97084316 478.68493652 382.77972412 C476.79851207 383.82021529 474.91147573 384.85959084 473.02441406 385.89892578 C465.42354954 390.0887089 457.85573466 394.33207532 450.3125 398.625 C441.17899325 403.82019832 431.9483607 408.81691315 422.68408203 413.77441406 C414.68973137 418.06290794 406.77768878 422.47978563 398.89233398 426.96484375 C391.14630853 431.36576863 383.36375581 435.69803242 375.5625 440 C374.95027588 440.33764374 374.33805176 440.67528748 373.70727539 441.02316284 C364.22942011 446.24695965 354.71993181 451.41076544 345.19702148 456.55200195 C338.37239874 460.24165942 331.59437223 464.00513551 324.84375 467.828125 C320.61719224 470.22142427 316.37211476 472.58092192 312.125 474.9375 C311.36920654 475.35700928 310.61341309 475.77651855 309.8347168 476.20874023 C306.841477 477.86973801 303.84778034 479.52991111 300.85400391 481.18994141 C290.19997633 487.09846397 279.56345156 493.03749846 268.94116211 499.00292969 C265.96335401 500.67328455 262.98223357 502.33756131 260 504 C258.9672998 504.57943359 257.93459961 505.15886719 256.87060547 505.75585938 C255.8807666 506.30564453 254.89092773 506.85542969 253.87109375 507.421875 C252.98220459 507.9178418 252.09331543 508.41380859 251.17749023 508.92480469 C249 510 249 510 247 510 C251.66358474 520.99592823 256.80131617 531.71692079 262.1875 542.375 C267.20182444 552.29847297 272.05013589 562.26817688 276.6875 572.375 C281.15335988 582.10553013 285.79650555 591.7201157 290.62182617 601.27709961 C295.42574154 610.80170791 300.02041137 620.42032312 304.59814453 630.05517578 C307.03197803 635.16783681 309.48548832 640.2710391 311.9375 645.375 C312.69123901 646.94531982 312.69123901 646.94531982 313.46020508 648.54736328 C316.38568548 654.64199697 319.31641077 660.73407276 322.2512207 666.82421875 C323.71421628 669.86808512 325.16764382 672.91640943 326.62109375 675.96484375 C328.82959562 680.58878852 331.0768139 685.19130571 333.34846497 689.78453064 C334.9375305 693.00751132 336.50836817 696.23920233 338.07681274 699.47225952 C338.85049549 701.05679672 339.63173715 702.63766847 340.42098999 704.21450806 C347.8862875 719.14689507 347.8862875 719.14689507 347.76074219 727.90283203 C346.62885328 731.02315479 344.95445753 731.58012798 342 733 C338.69971561 733.37752342 338.69971561 733.37752342 334.87135315 733.38095093 C333.81161322 733.38797089 333.81161322 733.38797089 332.7304644 733.39513266 C330.36902673 733.40707481 328.00817024 733.39762878 325.64672852 733.38818359 C323.95131085 733.39224969 322.25589584 733.39759178 320.56048584 733.40411377 C315.95922004 733.41778971 311.35815605 733.41248729 306.75688672 733.40297651 C301.94037155 733.39538014 297.12387364 733.40242558 292.30735779 733.40713501 C284.2178131 733.41259314 276.12835057 733.40539997 268.03881836 733.39111328 C258.68944159 733.37479218 249.34026113 733.38007112 239.99088913 733.3965925 C231.96186919 733.41021228 223.9329083 733.41212444 215.90388054 733.40427649 C211.10937053 733.39960198 206.31495275 733.39896893 201.52044868 733.40888596 C197.01174877 733.41756029 192.50330156 733.41152516 187.99462891 733.39420319 C186.34105282 733.39024061 184.68745543 733.39136849 183.03388786 733.39799118 C180.77418285 733.40620616 178.51528432 733.39588641 176.25563049 733.38095093 C174.99189385 733.37981985 173.72815722 733.37868877 172.42612553 733.37752342 C168.65551566 732.96204141 166.233257 731.94983925 163 730 C161.63790894 728.22644043 161.63790894 728.22644043 160.76513672 726.23242188 C160.4234848 725.47792252 160.08183289 724.72342316 159.72982788 723.94606018 C159.38328156 723.12854782 159.03673523 722.31103546 158.6796875 721.46875 C158.29890045 720.61381454 157.9181134 719.75887909 157.52578735 718.8780365 C156.29045752 716.09306837 155.08275336 713.29702316 153.875 710.5 C153.02589748 708.57220028 152.17497567 706.64520088 151.32226562 704.71899414 C149.63400873 700.89793182 147.95608367 697.07262453 146.28808594 693.24267578 C144.37346185 688.8481341 142.43609677 684.46452271 140.4765625 680.08984375 C135.48743589 668.94525987 130.57037914 657.76884082 125.65893555 646.58984375 C120.7262157 635.36529074 115.76872251 624.15169019 110.8125 612.9375 C110.37646454 611.95088379 109.94042908 610.96426758 109.49118042 609.94775391 C106.99438283 604.29838653 104.49730698 598.64914222 102 593 C98.28776463 593.5796391 95.56480556 594.59838608 92.32421875 596.484375 C91.42654785 597.00056396 90.52887695 597.51675293 89.60400391 598.04858398 C88.64155762 598.61005127 87.67911133 599.17151855 86.6875 599.75 C84.6065497 600.94589333 82.52448363 602.13984686 80.44140625 603.33203125 C79.37293457 603.94385254 78.30446289 604.55567383 77.20361328 605.18603516 C72.21666159 608.00977019 67.17340786 610.72563842 62.125 613.4375 C52.9304348 618.38824763 43.80178278 623.44593514 34.69873047 628.56274414 C26.73542586 633.03603433 18.74936887 637.46667411 10.75 641.875 C9.84584854 642.373414 9.84584854 642.373414 8.9234314 642.88189697 C3.37053207 645.94272506 -2.18376539 649.00101 -7.73925781 652.05712891 C-11.45178831 654.09946742 -15.16363689 656.14304092 -18.875 658.1875 C-19.48209808 658.52182037 -20.08919617 658.85614075 -20.71469116 659.20059204 C-28.69653018 663.59804157 -36.64346576 668.05272186 -44.5625 672.5625 C-53.55894832 677.6830301 -62.6594495 682.59486851 -71.79751587 687.45626831 C-80.79248357 692.24417683 -89.6953985 697.17315328 -98.54760742 702.2199707 C-106.43188936 706.70567697 -114.39464728 711.03572051 -122.37866211 715.34082031 C-130.40852508 719.67209163 -138.39280514 724.07915968 -146.35888672 728.52636719 C-151.41404673 731.346939 -156.47261451 734.16138125 -161.53182983 736.97467041 C-163.3430077 737.98220314 -165.15357618 738.9908246 -166.96411133 739.99951172 C-168.07681396 740.61842285 -169.1895166 741.23733398 -170.3359375 741.875 C-171.82939697 742.70644531 -171.82939697 742.70644531 -173.35302734 743.5546875 C-177.93074265 746.05423321 -180.88238418 747.34788198 -186.1875 747.5 C-187.25355469 747.5515625 -188.31960937 747.603125 -189.41796875 747.65625 C-194.54730352 746.71652455 -197.86901288 744.07374107 -202 741 C-202.74967041 740.45730469 -203.49934082 739.91460938 -204.27172852 739.35546875 C-206.58915187 737.66952645 -208.88961022 735.9624523 -211.1875 734.25 C-216.75940357 730.11977777 -222.34104974 726.01024658 -228 722 C-235.98806122 716.3321568 -243.85226351 710.49710099 -251.72949219 704.67675781 C-255.00361612 702.25883489 -258.28142764 699.84598447 -261.5625 697.4375 C-262.45678711 696.78104492 -262.45678711 696.78104492 -263.36914062 696.11132812 C-267.44461909 693.12554979 -271.53916995 690.16705177 -275.63989258 687.21606445 C-283.59122664 681.49357103 -291.47853698 675.69722261 -299.29296875 669.7890625 C-301.67486854 667.98918497 -304.07103855 666.21304213 -306.48828125 664.4609375 C-317.45525292 656.45330739 -317.45525292 656.45330739 -320 652 C-321.21027672 644.21310835 -318.91926236 638.36647834 -315.5 631.5 C-315.01297607 630.48156006 -314.52595215 629.46312012 -314.02416992 628.41381836 C-312.94565594 626.15898685 -311.85958208 623.90776011 -310.76708984 621.65966797 C-308.89664158 617.80239902 -307.08022007 613.92076065 -305.26953125 610.03515625 C-296.91148201 592.11870592 -288.33744446 574.3113351 -279.68832397 556.53396606 C-273.57641881 543.96606662 -267.58397042 531.34106524 -261.59375 518.71484375 C-259.95844264 515.26817729 -258.32302774 511.82156189 -256.6875 508.375 C-256.27598694 507.50776306 -255.86447388 506.64052612 -255.44049072 505.74700928 C-248.54272984 491.21378259 -241.57518931 476.71609059 -234.56591797 462.23632812 C-226.91478799 446.42351568 -219.36733084 430.56430508 -211.89920044 414.66442871 C-206.7903561 403.78760255 -201.63840642 392.9326977 -196.44140625 382.09765625 C-194.11162314 377.23928431 -191.80273123 372.37124069 -189.5 367.5 C-182.39260765 352.47171859 -175.19548733 337.48624721 -168 322.5 C-166.48364223 319.34102229 -164.96736206 316.18200737 -163.45117188 313.02294922 C-162.52052413 311.08430852 -161.58956267 309.14581837 -160.65820312 307.20751953 C-156.17494135 297.8752562 -151.71317774 288.53350629 -147.31640625 279.16015625 C-146.99324936 278.47130844 -146.67009247 277.78246063 -146.33714294 277.07273865 C-145.66878152 275.6479497 -145.00042114 274.22316027 -144.33206177 272.79837036 C-143.82737869 271.72255203 -143.82737869 271.72255203 -143.3125 270.625 C-142.80624588 269.54567703 -142.80624588 269.54567703 -142.2897644 268.44454956 C-136.88609254 256.93141684 -131.37078737 245.476374 -125.79821777 234.04418945 C-120.74145346 223.66422587 -115.83050877 213.22589647 -111.00317383 202.73681641 C-106.27187611 192.49691044 -101.33979382 182.36011014 -96.38870239 172.22515869 C-91.81767858 162.86377235 -87.33481399 153.47380116 -83 144 C-76.73593251 130.33275605 -70.07789008 116.86237598 -63.4375 103.375 C-55.95670832 88.18009761 -48.55018556 72.97816498 -41.54296875 57.55859375 C-37.8379367 49.41041216 -33.92975904 41.35955393 -30.03515625 33.30078125 C-27.89485778 28.87134866 -25.78178189 24.43000065 -23.68359375 19.98046875 C-23.14025391 18.83328369 -22.59691406 17.68609863 -22.03710938 16.50415039 C-20.99307823 14.29865053 -19.9537925 12.09089625 -18.91992188 9.88061523 C-18.21512695 8.39670288 -18.21512695 8.39670288 -17.49609375 6.8828125 C-16.88012329 5.57401123 -16.88012329 5.57401123 -16.25170898 4.23876953 C-14.53232136 1.16352386 -13.0855499 -0.60799587 -9.75 -1.8125 C-5.89240546 -2.07551781 -3.55214401 -1.58577858 0 0 Z " fill="#010101" transform="translate(427,136)"/>
<path d="M0 0 C0.99 0 1.98 0 3 0 C3.25394531 0.71027344 3.50789063 1.42054688 3.76953125 2.15234375 C4.11371094 3.07144531 4.45789063 3.99054688 4.8125 4.9375 C5.14894531 5.85402344 5.48539062 6.77054687 5.83203125 7.71484375 C6.83409094 10.3340424 6.83409094 10.3340424 10 11 C10.73046875 13.06640625 10.73046875 13.06640625 11.1875 15.5625 C11.34605469 16.38878906 11.50460937 17.21507812 11.66796875 18.06640625 C11.77753906 18.70449219 11.88710938 19.34257812 12 20 C12.66 20 13.32 20 14 20 C15.01241857 22.32856271 16.01149908 24.66124889 17 27 C17.31324219 27.73734375 17.62648438 28.4746875 17.94921875 29.234375 C19.90750641 33.97141868 21.54860011 38.70731568 23 43.625 C24.53433524 48.78207121 26.49264281 53.25393104 29 58 C29 58.66 29 59.32 29 60 C29.99 60 30.98 60 32 60 C34.48360909 65.44483531 36.79610151 70.93645784 39 76.5 C42.70948633 86.22795899 42.70948633 86.22795899 47.5 95.4375 C48.86366525 97.76709479 49.78753458 99.92530212 50.75 102.4375 C52.92370886 108.07899343 55.69213537 113.36584083 58.51171875 118.703125 C59.94705542 121.88271594 60.60803541 124.55071163 61 128 C58.03053599 130.53422849 55.91240078 131.44472664 52.05078125 131.9140625 C51.12072266 132.03523437 50.19066406 132.15640625 49.23242188 132.28125 C48.26884766 132.3946875 47.30527344 132.508125 46.3125 132.625 C44.39149025 132.86369784 42.4708876 133.10570337 40.55078125 133.3515625 C39.70169189 133.45291504 38.85260254 133.55426758 37.9777832 133.65869141 C36.00426019 133.80355373 36.00426019 133.80355373 35 135 C32.7963168 135.32493988 30.58664415 135.6096027 28.375 135.875 C22.60652723 136.60682906 22.60652723 136.60682906 17.1875 138.5625 C13.73317897 140.12033105 11.04907524 140.42903155 7.30859375 140.59375 C4.82965058 140.90811367 4.82965058 140.90811367 2.22265625 142.46875 C-2.12511509 144.53460014 -6.36200443 144.78181992 -11.078125 145.171875 C-15.6967544 145.63021227 -18.92529865 146.85183108 -23 149 C-25.51953125 149.4765625 -25.51953125 149.4765625 -27.8125 149.625 C-30.70364948 149.62427171 -30.70364948 149.62427171 -33 151 C-34.46126966 151.33060737 -35.93411181 151.61047156 -37.41015625 151.8671875 C-38.31830078 152.03089844 -39.22644531 152.19460938 -40.16210938 152.36328125 C-42.06785028 152.69951298 -43.97408979 153.03293309 -45.88085938 153.36328125 C-51.57468575 154.39561239 -56.61516297 155.89961606 -62 158 C-65.5 158.1875 -65.5 158.1875 -68 158 C-66.42046931 149.20866473 -63.01314208 141.98744218 -59 134.0625 C-56.76158689 129.63603808 -54.84395339 125.19639752 -53.06640625 120.5703125 C-51.39491395 116.54158747 -49.36023608 112.70352034 -47.37890625 108.8203125 C-46.23515367 106.48096586 -45.25299447 104.19686983 -44.375 101.75 C-43.11742972 98.32026287 -41.63676099 95.2349304 -39.96875 92 C-39.01379748 90.02848511 -38.24052554 88.06059279 -37.5 86 C-36.23785567 82.4948057 -34.66811266 79.24324109 -32.97265625 75.9296875 C-30.78620858 71.59191582 -29.04594665 67.19843766 -27.625 62.5625 C-26.34546858 58.58921822 -24.51039176 55.45461391 -22.20703125 51.99609375 C-20.28985768 48.82562225 -19.18793606 45.50128523 -18 42 C-17.34 42 -16.68 42 -16 42 C-16.0825 41.13375 -16.165 40.2675 -16.25 39.375 C-15.93796006 35.16246086 -14.34632643 33.4859707 -12 30 C-10.82016946 26.71227137 -9.88143381 23.37882961 -9 20 C-8.34 20 -7.68 20 -7 20 C-6.8865625 19.30132812 -6.773125 18.60265625 -6.65625 17.8828125 C-5.92738352 14.68100617 -4.79930008 11.88907403 -3.5 8.875 C-2.23499508 5.92577341 -1.01494232 3.04482696 0 0 Z M-2 18 C-8.41062629 30.21179164 -13.88116545 42.8385003 -19.43701172 55.45507812 C-21.86192939 60.9548914 -24.30641978 66.44595988 -26.75 71.9375 C-27.74489916 74.17573347 -28.73968732 76.41401629 -29.734375 78.65234375 C-32.31347656 84.45532227 -32.31347656 84.45532227 -34.89257812 90.25830078 C-35.21912888 90.99306641 -35.54567963 91.72783203 -35.88212585 92.48486328 C-36.55751256 94.00442973 -37.23297918 95.52396067 -37.90852356 97.04345703 C-39.62081258 100.89517174 -41.33174872 104.74747597 -43.03979492 108.60107422 C-45.94384666 115.14966734 -48.85221451 121.69547971 -51.82217407 128.21450806 C-52.69737372 130.13590157 -53.56894482 132.05889908 -54.43945312 133.98242188 C-55.49656977 136.31418458 -56.56130188 138.64251451 -57.63476562 140.96679688 C-58.09689453 141.98966797 -58.55902344 143.01253906 -59.03515625 144.06640625 C-59.4412915 144.95271729 -59.84742676 145.83902832 -60.26586914 146.75219727 C-61.28825516 149.12711906 -61.28825516 149.12711906 -60 152 C-47.33088208 149.01032796 -34.66504107 146.00689035 -22 143 C-20.65391088 142.68049893 -19.30782118 142.36100034 -17.96173096 142.04150391 C-9.69379675 140.07888033 -1.42644057 138.11384674 6.84002781 136.14505768 C10.68509977 135.22932808 14.53037037 134.31445262 18.37612915 133.40161133 C22.05415245 132.52852995 25.73160027 131.6530644 29.40863228 130.77581787 C30.7848237 130.44792557 32.1612194 130.12088941 33.53782463 129.79473877 C35.43428942 129.34526751 37.3299598 128.89244831 39.22558594 128.43945312 C40.29677673 128.1845813 41.36796753 127.92970947 42.47161865 127.66711426 C44.97053817 127.09982649 44.97053817 127.09982649 47 126 C44.68505554 118.53724685 41.6745755 111.54317862 38.4375 104.4375 C37.87129198 103.1857516 37.30555149 101.93379163 36.74023438 100.68164062 C35.50316202 97.94292711 34.26378335 95.20527283 33.02294922 92.46826172 C29.71893479 85.17602223 26.44010319 77.87242793 23.1567688 70.57086182 C22.00277509 68.00616751 20.84720619 65.44218864 19.69116211 62.87841797 C16.11336826 54.94132906 12.54920221 46.99897024 9.03125 39.03515625 C8.13537688 37.01313819 7.23911523 34.99129275 6.34277344 32.96948242 C5.51808737 31.10342713 4.70037626 29.23441844 3.8828125 27.36523438 C3.39554687 26.26630859 2.90828125 25.16738281 2.40625 24.03515625 C1.98666016 23.0800415 1.56707031 22.12492676 1.13476562 21.14086914 C0.18666678 18.85131956 0.18666678 18.85131956 -2 18 Z " fill="#010101" transform="translate(422,469)"/>
<path d="M0 0 C0.32871094 0.98226562 0.32871094 0.98226562 0.6640625 1.984375 C2.45476555 7.13810573 4.43421099 12.02366471 6.9375 16.875 C10.85800372 24.50704658 14.54325245 32.494474 16 41 C16.66 41 17.32 41 18 41 C21.88929762 49.73130504 25.65776782 58.45133431 28.95703125 67.42578125 C29.968875 70.17178175 29.968875 70.17178175 32 73 C32 74.32 32 75.64 32 77 C32.66 77 33.32 77 34 77 C34.86555948 79.09950586 35.71711277 81.2047907 36.5625 83.3125 C37.03816406 84.48425781 37.51382813 85.65601563 38.00390625 86.86328125 C39 90 39 90 38 93 C32.87186674 82.11333315 28.14546876 71.0745252 23.45629883 59.99389648 C20.17291405 52.24248497 16.88322505 44.5548816 13.03051758 37.06469727 C11.52341489 34.04513617 10.32929486 30.96575724 9.125 27.8125 C7.00600774 22.37290898 4.71952779 17.03990687 2.25 11.75 C1.95625488 11.11811768 1.66250977 10.48623535 1.35986328 9.83520508 C0.0530206 7.066951 -1.29742426 4.5538636 -3 2 C-7.93494215 2.50822539 -11.0006447 3.97410836 -15.125 6.6875 C-19.39877051 9.44020233 -23.66120162 11.91275321 -28.25 14.125 C-31.78788382 15.83866247 -35.03764285 17.61174837 -38.25 19.875 C-42.96922274 23.16206374 -48.03397123 25.58440546 -53.18847656 28.10009766 C-57.38387097 30.1581221 -61.36461508 32.35144021 -65.27734375 34.9140625 C-70.92426286 38.47379836 -77.83231393 42.12259241 -84.375 43.5 C-84.91125 43.665 -85.4475 43.83 -86 44 C-86.33 44.99 -86.66 45.98 -87 47 C-88.84765625 47.73046875 -88.84765625 47.73046875 -91.0625 48.1875 C-91.79597656 48.34605469 -92.52945313 48.50460937 -93.28515625 48.66796875 C-93.85105469 48.77753906 -94.41695313 48.88710938 -95 49 C-95 49.66 -95 50.32 -95 51 C-97.475 51.495 -97.475 51.495 -100 52 C-100.33 52.99 -100.66 53.98 -101 55 C-103.98459129 56.95542188 -105.26414791 57 -109 57 C-109 57.66 -109 58.32 -109 59 C-111.55886504 60.32002556 -114.12167068 61.63113782 -116.6875 62.9375 C-117.40873047 63.31068359 -118.12996094 63.68386719 -118.87304688 64.06835938 C-122.56505742 65.93965239 -125.83693096 67.48269556 -130 68 C-126.96669751 64.75101639 -123.42109094 62.9907282 -119.5 61 C-112.93914405 57.60304827 -106.50342578 54.04061388 -100.125 50.3125 C-94.43412837 46.98966486 -88.73529392 43.70967898 -82.9296875 40.58984375 C-80.5284199 39.28675586 -78.14104422 37.96445471 -75.7578125 36.62890625 C-62.21933985 29.04479503 -62.21933985 29.04479503 -56 26 C-50.87030478 23.48516335 -45.86830285 20.77292232 -40.875 18 C-40.09882324 17.56896973 -39.32264648 17.13793945 -38.52294922 16.69384766 C-33.57084977 13.92460237 -28.70671356 11.0498751 -23.9453125 7.9609375 C-22 7 -22 7 -18 7 C-18 6.34 -18 5.68 -18 5 C-6.66287016 -2.07289294 -6.66287016 -2.07289294 0 0 Z " fill="#1C1C1C" transform="translate(538,716)"/>
<path d="M0 0 C1.32 0 2.64 0 4 0 C4 0.66 4 1.32 4 2 C2.95199219 2.50660156 2.95199219 2.50660156 1.8828125 3.0234375 C0.97273438 3.46945312 0.06265625 3.91546875 -0.875 4.375 C-2.23238281 5.03628906 -2.23238281 5.03628906 -3.6171875 5.7109375 C-6.09534472 6.90502699 -6.09534472 6.90502699 -8 9 C-9.61733701 9.67389042 -11.23565324 10.34554848 -12.859375 11.00390625 C-16.34396498 12.62538516 -19.52977106 14.72785078 -22.765625 16.79296875 C-25 18 -25 18 -28 18 C-28 18.66 -28 19.32 -28 20 C-28.73863281 20.36351562 -29.47726562 20.72703125 -30.23828125 21.1015625 C-36.41820621 24.1640412 -42.51209507 27.32805334 -48.52734375 30.703125 C-51 32 -51 32 -53.6171875 33.0234375 C-56.41835798 34.17145819 -58.5536473 35.90135183 -60.96484375 37.703125 C-64.03606255 39.66021644 -67.34092715 40.80597754 -70.765625 42.0078125 C-73.11875161 43.05273236 -74.26286723 44.13844449 -76 46 C-79.67510779 48.54955274 -82.40386906 50 -87 50 C-87 50.66 -87 51.32 -87 52 C-90 54 -90 54 -94 54 C-94 54.66 -94 55.32 -94 56 C-95.32 56 -96.64 56 -98 56 C-98 56.66 -98 57.32 -98 58 C-98.83144531 58.39832031 -98.83144531 58.39832031 -99.6796875 58.8046875 C-100.40414063 59.15789063 -101.12859375 59.51109375 -101.875 59.875 C-102.95394531 60.39707031 -102.95394531 60.39707031 -104.0546875 60.9296875 C-106.15135019 61.96557543 -106.15135019 61.96557543 -108 64 C-109.98821313 64.39764263 -111.98944339 64.73775349 -114 65 C-114 65.66 -114 66.32 -114 67 C-116.98997825 68.49498913 -119.70042775 68.11577446 -123 68 C-123.99 67.67 -124.98 67.34 -126 67 C-126 66.34 -126 65.68 -126 65 C-124.7625 65.37125 -124.7625 65.37125 -123.5 65.75 C-116.4801051 66.25142106 -110.56827967 61.18500861 -104.7590332 57.64526367 C-102.1652041 56.09851433 -99.546213 54.63288278 -96.890625 53.1953125 C-95.9318042 52.67501465 -94.9729834 52.1547168 -93.98510742 51.61865234 C-92.50747925 50.81741943 -92.50747925 50.81741943 -91 50 C-89.0842348 48.95385831 -87.16886661 47.90698923 -85.25390625 46.859375 C-83.35677083 45.82291667 -81.45963542 44.78645833 -79.5625 43.75 C-78.59634766 43.22148438 -77.63019531 42.69296875 -76.63476562 42.1484375 C-75.70470703 41.64054688 -74.77464844 41.13265625 -73.81640625 40.609375 C-72.98568604 40.15530273 -72.15496582 39.70123047 -71.29907227 39.23339844 C-70.54037842 38.82637695 -69.78168457 38.41935547 -69 38 C-67.95380493 37.42427246 -67.95380493 37.42427246 -66.88647461 36.83691406 C-65 36 -65 36 -62 36 C-62 35.34 -62 34.68 -62 34 C-45.88671875 25.2109375 -45.88671875 25.2109375 -42.91308594 23.58959961 C-41.05102814 22.5735203 -39.18963341 21.55622429 -37.32910156 20.53735352 C-32.17945576 17.71968556 -27.01482351 14.93150177 -21.8359375 12.16796875 C-21.22553116 11.84213806 -20.61512482 11.51630737 -19.98622131 11.18060303 C-17.4694088 9.83751454 -14.95240501 8.49479567 -12.43408203 7.15454102 C-10.56716721 6.16063202 -8.7014573 5.16449305 -6.8359375 4.16796875 C-5.73813965 3.58297607 -4.6403418 2.9979834 -3.50927734 2.39526367 C-1.13236447 1.22381905 -1.13236447 1.22381905 0 0 Z " fill="#1C1C1C" transform="translate(364,807)"/>
<path d="M0 0 C0.66 0 1.32 0 2 0 C4.70270488 5.73893505 7.22528812 11.49038495 9.4375 17.4375 C11.52450401 23.00727503 14.04398656 28.20760226 16.86328125 33.44140625 C18 36 18 36 18 40 C18.66 40 19.32 40 20 40 C20.25394531 40.63808594 20.50789062 41.27617188 20.76953125 41.93359375 C21.11371094 42.75988281 21.45789063 43.58617187 21.8125 44.4375 C22.14894531 45.26121094 22.48539063 46.08492187 22.83203125 46.93359375 C23.88403088 49.33372488 23.88403088 49.33372488 27 50 C29.2444424 50.10398945 31.49187372 50.14649002 33.73869324 50.15821838 C34.42729331 50.16315636 35.11589338 50.16809434 35.82536012 50.17318195 C38.13772135 50.18856649 40.4500548 50.19692014 42.76245117 50.20532227 C44.41804754 50.21490004 46.07364145 50.22491006 47.72923279 50.23532104 C52.22889598 50.26238709 56.72856967 50.28338746 61.22826934 50.30332303 C65.92883586 50.32517209 70.62936993 50.35256606 75.32991028 50.37937927 C84.23336681 50.42932077 93.13684133 50.4742542 102.04033309 50.51740164 C112.1756605 50.56676156 122.31095535 50.62168431 132.44625127 50.67708123 C153.29747053 50.79092364 174.14872085 50.89775777 195 51 C195 51.33 195 51.66 195 52 C172.75620398 52.07001813 150.51242608 52.12295284 128.26854229 52.15543652 C117.9407909 52.17091878 107.61310789 52.19203421 97.28540039 52.22631836 C88.28590008 52.25617916 79.28644929 52.27556511 70.28690082 52.28226548 C65.5197692 52.28618338 60.75277927 52.29541909 55.98569298 52.31719017 C51.50173232 52.33750295 47.01797217 52.3438444 42.53396988 52.33932304 C40.88557281 52.34015059 39.23716925 52.34614722 37.58881187 52.35761642 C35.343154 52.37247944 33.09825931 52.36897683 30.85258484 52.36076355 C29.59433742 52.36352893 28.33608999 52.36629431 27.03971386 52.36914349 C24 52 24 52 22.15391254 50.62906361 C20.58993128 48.42107568 19.4899587 46.14858151 18.36328125 43.6875 C17.87190674 42.62031738 17.38053223 41.55313477 16.87426758 40.45361328 C16.10119263 38.74407471 16.10119263 38.74407471 15.3125 37 C14.78229248 35.83839355 14.25208496 34.67678711 13.70581055 33.47998047 C10.49005179 26.39781118 7.34311643 19.28840483 4.3125 12.125 C3.98612549 11.35414063 3.65975098 10.58328125 3.32348633 9.7890625 C1.976486 6.55362412 0.79087976 3.41257804 0 0 Z " fill="#141414" transform="translate(577,809)"/>
<path d="M0 0 C1.16544527 3.4963358 0.88444532 3.86761912 -0.66015625 7.02734375 C-1.03881836 7.81367187 -1.41748047 8.6 -1.80761719 9.41015625 C-2.22172852 10.24417969 -2.63583984 11.07820312 -3.0625 11.9375 C-3.47790039 12.7934375 -3.89330078 13.649375 -4.32128906 14.53125 C-7.00088569 20.0357351 -9.72271551 25.52085247 -12.515625 30.96875 C-13.83395594 33.66092055 -15.08254127 36.3700087 -16.31640625 39.1015625 C-19.47991374 46.09830252 -22.8204636 53.00703614 -26.15820312 59.921875 C-26.85913086 61.37980469 -26.85913086 61.37980469 -27.57421875 62.8671875 C-27.99276123 63.73456543 -28.41130371 64.60194336 -28.8425293 65.49560547 C-30.04540041 68.014327 -30.04540041 68.014327 -31.02661133 70.75830078 C-32 73 -32 73 -34 74 C-34.68239354 75.99468882 -35.34370484 77.99657266 -36 80 C-36.78588312 81.94844816 -37.60052269 83.88544746 -38.4375 85.8125 C-38.84871094 86.76769531 -39.25992188 87.72289062 -39.68359375 88.70703125 C-41 91 -41 91 -44 92 C-42.59328291 87.41592192 -40.73682646 83.19844123 -38.5625 78.9375 C-38.26279297 78.33873047 -37.96308594 77.73996094 -37.65429688 77.12304688 C-36.32071891 74.48192609 -34.94256973 71.90578065 -33.40234375 69.37890625 C-31.98117808 66.9680709 -31.00274011 64.60949295 -30 62 C-27.40795432 56.21603521 -24.77416604 50.44976731 -21.875 44.8125 C-19.9660716 41.08177272 -18.48418278 37.22346259 -17.02734375 33.296875 C-15.95175967 30.89214709 -14.58518223 29.09244054 -13 27 C-12.28313841 25.07750757 -11.56903127 23.15377386 -10.88671875 21.21875 C-9.59468047 17.98580841 -7.86078531 15.04914279 -6.12890625 12.03515625 C-4.8663372 9.75903696 -3.94241956 7.42336457 -3 5 C-2.02763513 3.3170608 -1.03435556 1.64556566 0 0 Z " fill="#1B1B1B" transform="translate(204,595)"/>
<path d="M0 0 C-5.89738492 2.29342747 -10.66606918 3.34548714 -17 3 C-17 3.66 -17 4.32 -17 5 C-21.50872503 6.50290834 -25.8434849 7.28047841 -30.5625 7.875 C-36.79335565 8.71415023 -42.60758953 10.18087048 -48.62109375 11.98828125 C-55.43691589 14.02908811 -62.29707371 15.74756781 -69.3125 16.9375 C-73.98736252 17.74516292 -78.54276967 18.84762567 -83.125 20.0625 C-84.12140503 20.3243811 -84.12140503 20.3243811 -85.13793945 20.59155273 C-88.33513842 21.27901533 -88.33513842 21.27901533 -91 23 C-93.34987262 23.23527773 -95.70556039 23.41386417 -98.0625 23.5625 C-99.35285156 23.64628906 -100.64320313 23.73007812 -101.97265625 23.81640625 C-102.97167969 23.87699219 -103.97070312 23.93757812 -105 24 C-102 22 -102 22 -98.8125 21.5625 C-95.83155281 21.12268812 -93.89242867 20.65761282 -91.1875 19.5625 C-87.55747761 18.13249118 -84.03314936 17.3121645 -80.203125 16.6015625 C-75.76953108 15.76891193 -71.35411482 14.85542449 -66.9375 13.9375 C-66.07922607 13.7629126 -65.22095215 13.5883252 -64.33666992 13.40844727 C-63.53334229 13.24143311 -62.73001465 13.07441895 -61.90234375 12.90234375 C-60.81167603 12.67792603 -60.81167603 12.67792603 -59.69897461 12.44897461 C-57.97921984 12.1468795 -57.97921984 12.1468795 -57 11 C-53.5 10.5 -53.5 10.5 -50 10 C-49.67 9.67 -49.34 9.34 -49 9 C-47.63597532 8.65801753 -46.25926675 8.36620831 -44.87890625 8.09765625 C-44.02490234 7.92943359 -43.17089844 7.76121094 -42.29101562 7.58789062 C-41.39060547 7.41451172 -40.49019531 7.24113281 -39.5625 7.0625 C-38.69689453 6.89298828 -37.83128906 6.72347656 -36.93945312 6.54882812 C-33.3424961 5.8444352 -29.74562463 5.14086429 -26.14404297 4.46044922 C-25.23928223 4.28658691 -24.33452148 4.11272461 -23.40234375 3.93359375 C-22.58113037 3.77818115 -21.75991699 3.62276855 -20.91381836 3.46264648 C-19.00293922 3.17665895 -19.00293922 3.17665895 -18 2 C-15.66702567 1.95907063 -13.33294775 1.95758277 -11 2 C-11 1.34 -11 0.68 -11 0 C-6.97959015 -0.69584017 -3.91736581 -1.1700097 0 0 Z " fill="#1B1B1B" transform="translate(769,530)"/>
<path d="M0 0 C-6.5 4 -6.5 4 -11 4 C-11 4.66 -11 5.32 -11 6 C-15.20716544 9.12144533 -20.05372401 10.48055574 -25 12 C-25 12.66 -25 13.32 -25 14 C-26.4562545 14.67119549 -27.91507867 15.33681807 -29.375 16 C-30.18710937 16.37125 -30.99921875 16.7425 -31.8359375 17.125 C-34 18 -34 18 -36 18 C-36 18.66 -36 19.32 -36 20 C-39.36683915 22.43160605 -40.73350364 23 -45 23 C-45.33 23.99 -45.66 24.98 -46 26 C-48.98459129 27.95542188 -50.26414791 28 -54 28 C-54 28.66 -54 29.32 -54 30 C-56.64738916 31.4606285 -57.89448334 32 -61 32 C-61 32.66 -61 33.32 -61 34 C-63.475 34.495 -63.475 34.495 -66 35 C-65.01 34.505 -65.01 34.505 -64 34 C-64 33.34 -64 32.68 -64 32 C-61 30 -61 30 -57 30 C-57 29.34 -57 28.68 -57 28 C-54.03 27.01 -51.06 26.02 -48 25 C-48 24.34 -48 23.68 -48 23 C-45.76171875 21.484375 -45.76171875 21.484375 -42.6875 19.75 C-41.58792969 19.12738281 -40.48835937 18.50476563 -39.35546875 17.86328125 C-37.69451172 16.94095703 -37.69451172 16.94095703 -36 16 C-35.06800781 15.47792969 -34.13601563 14.95585938 -33.17578125 14.41796875 C-27.50382507 11.27976234 -21.75321852 8.32336146 -15.9375 5.4609375 C-13.98740177 4.49107482 -12.04947439 3.49632474 -10.125 2.4765625 C-9.238125 2.00992188 -8.35125 1.54328125 -7.4375 1.0625 C-6.65246094 0.64097656 -5.86742187 0.21945312 -5.05859375 -0.21484375 C-3 -1 -3 -1 0 0 Z " fill="#1B1B1B" transform="translate(783,579)"/>
<path d="M0 0 C0.33 0.66 0.66 1.32 1 2 C0.32695928 3.64894976 -0.35629332 5.29467987 -1.09765625 6.9140625 C-2.65650764 10.51764105 -3.80519574 14.26305902 -5 18 C-2.85318469 17.52525225 -0.70756772 17.04508251 1.4375 16.5625 C2.63246094 16.29566406 3.82742188 16.02882813 5.05859375 15.75390625 C7.8704686 15.29933252 7.8704686 15.29933252 9 14 C10.54311114 13.64584335 12.09796821 13.34245857 13.65625 13.0625 C15.06583984 12.80339844 15.06583984 12.80339844 16.50390625 12.5390625 C19.5 12 19.5 12 22.49609375 11.4609375 C23.90568359 11.20183594 23.90568359 11.20183594 25.34375 10.9375 C26.21193359 10.78152344 27.08011719 10.62554688 27.97460938 10.46484375 C29.98482911 10.1921756 29.98482911 10.1921756 31 9 C34.03025802 8.46178999 37.07076988 8.03443179 40.1171875 7.59765625 C43.18013813 7.15019525 43.18013813 7.15019525 46 5 C48.69921875 4.5859375 48.69921875 4.5859375 51.6875 4.375 C52.68136719 4.30023437 53.67523438 4.22546875 54.69921875 4.1484375 C55.45847656 4.09945312 56.21773438 4.05046875 57 4 C54.33743971 6.66256029 51.92989592 7.05147436 48.3125 8.0625 C47.11238281 8.40410156 45.91226563 8.74570312 44.67578125 9.09765625 C41.12363643 9.96964929 37.61726706 10.48584758 34 11 C33.67 11.33 33.34 11.66 33 12 C30.64740009 12.57257476 28.31044607 13.08972371 25.9375 13.5625 C25.2580835 13.69889893 24.57866699 13.83529785 23.87866211 13.97583008 C19.13783312 14.88410651 14.80465225 15.29416238 10 15 C10 15.66 10 16.32 10 17 C4.21642935 19.01167675 -0.90218999 19.22084624 -7 19 C-6.67422369 11.83292123 -3.34556372 6.23072876 0 0 Z " fill="#1D1D1D" transform="translate(359,609)"/>
<path d="M0 0 C-2.78566115 2.78566115 -5.12960447 2.49240714 -9 3 C-10.08152344 3.309375 -11.16304687 3.61875 -12.27734375 3.9375 C-15.9611518 4.98891216 -19.61451721 5.77470772 -23.375 6.5 C-33.84983962 8.52881104 -44.10131276 11.03520373 -54.38476562 13.87695312 C-60.59121329 15.5394685 -66.58623557 16.58413837 -73 17 C-70.23265149 14.23265149 -67.75249424 14.17876541 -63.9375 13.4375 C-59.64293125 12.9342384 -59.64293125 12.9342384 -56 11 C-54.55053611 10.66932241 -53.08938153 10.38948347 -51.625 10.1328125 C-50.26955078 9.88724609 -50.26955078 9.88724609 -48.88671875 9.63671875 C-46.99387894 9.30118152 -45.10066031 8.96777278 -43.20703125 8.63671875 C-37.9387429 7.67817263 -32.97102974 6.47009175 -27.93603516 4.63647461 C-25.01866074 3.67738317 -22.03798401 3.39381274 -19 3 C-16.65880445 2.36149212 -14.32548007 1.69356423 -12 1 C-4.1573111 -1.29973584 -4.1573111 -1.29973584 0 0 Z " fill="#1A1A1A" transform="translate(881,503)"/>
<path d="M0 0 C1.65 0 3.3 0 5 0 C5.70226141 1.24176695 6.38629109 2.49385599 7.0625 3.75 C7.44535156 4.44609375 7.82820313 5.1421875 8.22265625 5.859375 C9.1312406 8.36140628 8.88336837 9.5332355 8 12 C7.32880451 10.5437455 6.66318193 9.08492133 6 7.625 C5.62875 6.81289063 5.2575 6.00078125 4.875 5.1640625 C4 3 4 3 4 1 C3.01 1 2.02 1 1 1 C0.9175 1.804375 0.835 2.60875 0.75 3.4375 C-0.20437146 7.97076444 -2.05548263 11.81890336 -4 16 C-4.67834587 17.66194738 -5.35199575 19.32598903 -6 21 C-6.66 21 -7.32 21 -8 21 C-8.12375 21.70125 -8.2475 22.4025 -8.375 23.125 C-9.27071421 27.24528534 -10.3165069 30.90641103 -12.5625 34.5 C-14.20200777 37.35131786 -14.62269387 39.75516724 -15 43 C-15.66 43 -16.32 43 -17 43 C-16.63618666 37.54279997 -15.00635075 33.42849264 -12.66796875 28.51171875 C-10.48329202 23.91213005 -8.39961079 19.26949154 -6.3125 14.625 C-5.7237207 13.32236206 -5.7237207 13.32236206 -5.12304688 11.9934082 C-3.33373724 8.02482106 -1.5639057 4.06448221 0 0 Z " fill="#1D1D1D" transform="translate(421,468)"/>
<path d="M0 0 C0.66 0 1.32 0 2 0 C4.70270488 5.73893505 7.22528812 11.49038495 9.4375 17.4375 C11.52450401 23.00727503 14.04398656 28.20760226 16.86328125 33.44140625 C18 36 18 36 18 40 C18.66 40 19.32 40 20 40 C20.25394531 40.62648438 20.50789062 41.25296875 20.76953125 41.8984375 C21.28580078 43.12433594 21.28580078 43.12433594 21.8125 44.375 C22.14894531 45.18710937 22.48539063 45.99921875 22.83203125 46.8359375 C23.94439082 49.30147458 23.94439082 49.30147458 27 51 C25.35 51 23.7 51 22 51 C17.37360012 41.19931374 12.88593044 31.34691451 8.54541016 21.41625977 C7.60812904 19.27393844 6.66547709 17.13402884 5.72265625 14.99414062 C5.119469 13.61732882 4.5165922 12.24038095 3.9140625 10.86328125 C3.49539413 9.91489128 3.49539413 9.91489128 3.06826782 8.94734192 C1.78566901 6.00026268 0.63872582 3.15683616 0 0 Z " fill="#1B1B1B" transform="translate(577,809)"/>
<path d="M0 0 C1.37504799 2.75009598 0.6294275 3.96944052 -0.25 6.875 C-0.50265625 7.73867188 -0.7553125 8.60234375 -1.015625 9.4921875 C-2.03223849 12.0821314 -3.33949858 13.78742465 -5 16 C-5.72550633 17.78976011 -6.39005791 19.60513231 -7 21.4375 C-8.29565609 25.3190697 -9.89721299 28.500831 -12 32 C-12.71007665 33.81696084 -13.37688045 35.651412 -14 37.5 C-15.28926888 41.324831 -16.75460974 44.63191461 -19 48 C-19.33 48 -19.66 48 -20 48 C-20.25123832 44.0569542 -19.64194356 41.76016824 -17.75 38.3125 C-15.50912196 34.07129016 -13.66990416 29.8154514 -11.9921875 25.32421875 C-11 23 -11 23 -9.50390625 20.54296875 C-7.96574517 17.9420782 -7.01757841 15.48613618 -6.0625 12.625 C-4.45845208 8.04819919 -2.5584426 4.11178275 0 0 Z " fill="#202020" transform="translate(397,523)"/>
<path d="M0 0 C0.33 0.99 0.66 1.98 1 3 C-0.5 5 -0.5 5 -2 7 C-2.28488281 8.05058594 -2.56976563 9.10117187 -2.86328125 10.18359375 C-4.08540054 14.28672279 -5.78304522 17.60956619 -7.875 21.3125 C-11.03681206 27.07749005 -13.7686918 32.80413527 -16 39 C-16.37125 40.00804687 -16.7425 41.01609375 -17.125 42.0546875 C-18.09406483 44.69942693 -19.05201113 47.34764817 -20 50 C-20.33 50 -20.66 50 -21 50 C-21.40596451 45.02693472 -20.84317601 42.23015698 -18.1484375 38.03515625 C-16.24785483 34.66711689 -15.15071924 31.01351839 -13.9296875 27.35546875 C-13 25 -13 25 -11 23 C-10.28591666 21.01643517 -9.61382258 19.01684563 -9 17 C-8.34 17 -7.68 17 -7 17 C-6.9175 16.195625 -6.835 15.39125 -6.75 14.5625 C-5.79803325 10.04065795 -3.98419821 6.15297299 -2 2 C-1.34 2 -0.68 2 0 2 C0 1.34 0 0.68 0 0 Z " fill="#1A1A1A" transform="translate(138,733)"/>
<path d="M0 0 C0.66 0.33 1.32 0.66 2 1 C-1.75 4 -1.75 4 -4 4 C-4.33 4.99 -4.66 5.98 -5 7 C-7.31254012 8.04718798 -9.6485148 9.04346365 -12 10 C-12.639375 10.495 -13.27875 10.99 -13.9375 11.5 C-16.38631575 13.28095691 -18.94311659 14.05279907 -21.78125 15.04296875 C-25.11053888 16.47901765 -27.91200409 18.5550743 -30.82421875 20.6953125 C-33.22788497 22.13664916 -35.24253786 22.60400719 -38 23 C-38 22.34 -38 21.68 -38 21 C-34.11008386 18.84330779 -30.21212401 16.70158152 -26.3125 14.5625 C-25.20970703 13.95083984 -24.10691406 13.33917969 -22.97070312 12.70898438 C-21.90400391 12.12568359 -20.83730469 11.54238281 -19.73828125 10.94140625 C-18.75899658 10.40201416 -17.77971191 9.86262207 -16.77075195 9.30688477 C-14.13352783 8.06298127 -11.87183597 7.42401409 -9 7 C-9 6.34 -9 5.68 -9 5 C-7.54735962 4.1361871 -6.0876837 3.28419546 -4.625 2.4375 C-3.81289063 1.96183594 -3.00078125 1.48617187 -2.1640625 0.99609375 C-1.44992187 0.66738281 -0.73578125 0.33867188 0 0 Z " fill="#1E1E1E" transform="translate(406,784)"/>
<path d="M0 0 C0 0.66 0 1.32 0 2 C-1.78953185 2.83790789 -3.58169695 3.67019396 -5.375 4.5 C-6.87160156 5.19609375 -6.87160156 5.19609375 -8.3984375 5.90625 C-11 7 -11 7 -13 7 C-13 7.66 -13 8.32 -13 9 C-13.65226563 9.31453125 -14.30453125 9.6290625 -14.9765625 9.953125 C-20.88295298 12.82795586 -20.88295298 12.82795586 -26.4375 16.3125 C-29 18 -29 18 -32 18 C-30.69879504 14.09638512 -29.25438569 13.72586252 -25.6875 11.8125 C-24.72199219 11.28269531 -23.75648438 10.75289062 -22.76171875 10.20703125 C-20 9 -20 9 -16 9 C-16 8.34 -16 7.68 -16 7 C-13.71070947 5.82845707 -11.41881638 4.66261926 -9.125 3.5 C-8.47402344 3.16613281 -7.82304688 2.83226562 -7.15234375 2.48828125 C-2.2265625 0 -2.2265625 0 0 0 Z " fill="#1C1C1C" transform="translate(717,614)"/>
<path d="M0 0 C0 4.27244166 -1.1823829 7.68470292 -3.4375 11.3125 C-4.81407237 13.68020448 -5.5311252 15.5372705 -6.3125 18.125 C-7.82735093 22.96118186 -10.15923411 27.14763493 -12.6953125 31.51953125 C-13.85643704 33.72705845 -14.53470432 35.5657092 -15 38 C-15.66 38 -16.32 38 -17 38 C-15.81092039 31.26188221 -12.99380456 26.06392779 -9.671875 20.11328125 C-8.3441823 17.64091892 -7.24754478 15.32120946 -6.3125 12.6875 C-2.78947368 2.78947368 -2.78947368 2.78947368 0 0 Z " fill="#1E1E1E" transform="translate(365,257)"/>
<path d="M0 0 C0.89525391 0.29583984 0.89525391 0.29583984 1.80859375 0.59765625 C-3.76590829 3.98425352 -9.36003059 7.30779105 -15.08984375 10.42578125 C-16.46837319 11.19447797 -17.82922018 11.99597483 -19.16796875 12.83203125 C-23.74861275 15.67787816 -23.74861275 15.67787816 -26.390625 15.19921875 C-26.98488281 15.00070312 -27.57914063 14.8021875 -28.19140625 14.59765625 C-22.84373647 11.16707564 -17.411655 8.02288619 -11.80859375 5.02734375 C-9.57064848 3.80482439 -7.41768974 2.50671679 -5.25390625 1.16015625 C-2.19140625 -0.40234375 -2.19140625 -0.40234375 0 0 Z " fill="#1C1C1C" transform="translate(838.19140625,546.40234375)"/>
<path d="M0 0 C2.4375 0.8125 2.4375 0.8125 5 2 C5.33 2.99 5.66 3.98 6 5 C7.32331796 5.37110438 8.65920357 5.69808307 10 6 C12.140625 7.33984375 12.140625 7.33984375 14.25 8.9375 C14.95640625 9.46214844 15.6628125 9.98679687 16.390625 10.52734375 C16.92171875 11.01332031 17.4528125 11.49929688 18 12 C18 12.66 18 13.32 18 14 C18.99 14 19.98 14 21 14 C21 14.66 21 15.32 21 16 C21.7425 16.2475 22.485 16.495 23.25 16.75 C26.20124062 18.09147301 27.84814974 19.60905526 30 22 C24.05140228 22 18.96177187 16.51153836 14.375 12.9375 C10.04039564 9.5571906 10.04039564 9.5571906 5.6015625 6.31640625 C4.80878906 5.66478516 4.80878906 5.66478516 4 5 C4 4.34 4 3.68 4 3 C2.68 2.34 1.36 1.68 0 1 C0 0.67 0 0.34 0 0 Z " fill="#1B1B1B" transform="translate(168,820)"/>
<path d="M0 0 C0.33 1.32 0.66 2.64 1 4 C0.34 4 -0.32 4 -1 4 C-1.16326782 5.31121826 -1.16326782 5.31121826 -1.32983398 6.64892578 C-2.01800628 10.09003796 -3.07614391 12.53214333 -4.72265625 15.6171875 C-5.52993164 17.14472656 -5.52993164 17.14472656 -6.35351562 18.703125 C-6.91748047 19.74984375 -7.48144531 20.7965625 -8.0625 21.875 C-8.63033203 22.94492187 -9.19816406 24.01484375 -9.78320312 25.1171875 C-11.18130465 27.74890801 -12.58707235 30.37621846 -14 33 C-15.1653642 29.52592249 -15.01197961 29.02888107 -13.48828125 25.35546875 C-12.77520313 23.95985403 -12.04942498 22.57067114 -11.3125 21.1875 C-10.95994141 20.50107422 -10.60738281 19.81464844 -10.24414062 19.10742188 C-8.50010961 15.73732904 -6.68100545 12.42305112 -4.77734375 9.140625 C-3.35243056 6.62275641 -2.45032558 4.81453489 -2 2 C-1.34 2 -0.68 2 0 2 C0 1.34 0 0.68 0 0 Z " fill="#181818" transform="translate(340,310)"/>
<path d="M0 0 C0.99 0 1.98 0 3 0 C3 0.66 3 1.32 3 2 C-0.72278187 4.21935073 -3.77365392 6.02468937 -8 7 C-8.33 7.66 -8.66 8.32 -9 9 C-10.88538744 10.03811977 -12.80910176 11.00728901 -14.75 11.9375 C-17.85291076 13.4316356 -20.81259226 14.87840162 -23.703125 16.75390625 C-24.46109375 17.16511719 -25.2190625 17.57632813 -26 18 C-26.99 17.67 -27.98 17.34 -29 17 C-22.25 13 -22.25 13 -20 13 C-20 12.34 -20 11.68 -20 11 C-16.63316085 8.56839395 -15.26649636 8 -11 8 C-11 7.34 -11 6.68 -11 6 C-10.28972656 5.65066406 -9.57945312 5.30132812 -8.84765625 4.94140625 C-7.92855469 4.48636719 -7.00945313 4.03132813 -6.0625 3.5625 C-5.14597656 3.11003906 -4.22945312 2.65757812 -3.28515625 2.19140625 C-1.09471096 1.19474606 -1.09471096 1.19474606 0 0 Z " fill="#191919" transform="translate(923,498)"/>
<path d="M0 0 C3.64162468 4.14391774 6.80964456 8.5736021 7.125 14.25 C5.19393907 17.25387257 2.30646845 18.12897192 -1 19 C-4.66064019 19.51101554 -8.30983976 19.80648346 -12 20 C-11.67 19.34 -11.34 18.68 -11 18 C-8.67258011 17.62761282 -6.33764285 17.30163134 -4 17 C-1.66237777 16.34853151 0.67190457 15.68473395 3 15 C3.66 15 4.32 15 5 15 C4.58427734 14.00419922 4.58427734 14.00419922 4.16015625 12.98828125 C3.61681641 11.66376953 3.61681641 11.66376953 3.0625 10.3125 C2.70285156 9.44238281 2.34320313 8.57226562 1.97265625 7.67578125 C1.0429688 5.11820735 0.45837375 2.6778677 0 0 Z " fill="#1A1A1A" transform="translate(476,582)"/>
<path d="M0 0 C0.66 0 1.32 0 2 0 C0.08853524 6.1253757 -1.89122414 12.36141059 -5 18 C-5.66 18.33 -6.32 18.66 -7 19 C-7.84692901 21.22596002 -8.46846299 23.48363587 -9.12109375 25.7734375 C-10.05931118 28.15025499 -11.08380062 29.34534316 -13 31 C-12.67 29.02 -12.34 27.04 -12 25 C-11.34 25 -10.68 25 -10 25 C-9.9175 23.96875 -9.835 22.9375 -9.75 21.875 C-8.92936019 17.63502767 -7.49077559 15.47199021 -5 12 C-4.28272222 10.35448038 -3.61674772 8.68577711 -3 7 C-2.46451197 5.72655086 -1.92256126 4.4558047 -1.375 3.1875 C-0.92125 2.135625 -0.4675 1.08375 0 0 Z " fill="#1C1C1C" transform="translate(152,702)"/>
<path d="M0 0 C2.0625 0.4375 2.0625 0.4375 4 1 C-0.48450615 3.41325884 -5.13367926 4.40239821 -10.0625 5.5625 C-11.47245239 5.89737427 -11.47245239 5.89737427 -12.91088867 6.23901367 C-19.24954047 7.70186379 -25.47778349 8.83198037 -32 9 C-31.67 8.34 -31.34 7.68 -31 7 C-28.41796875 6.4375 -28.41796875 6.4375 -25.1875 6 C-20.97918777 5.4817942 -20.97918777 5.4817942 -17.0625 4.00390625 C-14.06704447 2.54589096 -11.10565536 2.34359895 -7.8125 1.9375 C-3.58046892 1.76268613 -3.58046892 1.76268613 0 0 Z " fill="#1B1B1B" transform="translate(458,602)"/>
<path d="M0 0 C-4.2047429 1.51599574 -8.18254187 2.88724715 -12.625 3.5 C-16.05884711 3.83859707 -16.05884711 3.83859707 -19.125 5.5 C-24.36169665 7.96786854 -30.31196523 7.75195036 -36 8 C-32.4602993 5.64019954 -30.00893712 5.41399192 -25.8125 4.875 C-24.54019531 4.70742188 -23.26789062 4.53984375 -21.95703125 4.3671875 C-20.98121094 4.24601563 -20.00539063 4.12484375 -19 4 C-19 3.34 -19 2.68 -19 2 C-17.2365625 1.814375 -17.2365625 1.814375 -15.4375 1.625 C-12.51588179 1.27337161 -10.1071471 0.73214413 -7.25 -0.125 C-4.020416 -0.99450339 -3.04072497 -0.93865858 0 0 Z " fill="#1C1C1C" transform="translate(806,521)"/>
<path d="M0 0 C1.14548728 3.43646183 0.92766609 3.79743819 -0.546875 6.90625 C-0.8975 7.65003906 -1.248125 8.39382813 -1.609375 9.16015625 C-1.98578125 9.93230469 -2.3621875 10.70445312 -2.75 11.5 C-3.1109375 12.27214844 -3.471875 13.04429687 -3.84375 13.83984375 C-5.56858499 17.44574879 -7.02232416 20.27064067 -10 23 C-9.45156092 17.55845604 -7.48377984 13.45965741 -5 8.6875 C-4.44699219 7.59598633 -4.44699219 7.59598633 -3.8828125 6.48242188 C-1.16931548 1.16931548 -1.16931548 1.16931548 0 0 Z " fill="#1A1A1A" transform="translate(216,570)"/>
<path d="M0 0 C1 3 1 3 0.29296875 4.83203125 C-0.25423828 5.81236328 -0.25423828 5.81236328 -0.8125 6.8125 C-2.17761575 9.35572934 -3.172442 11.53761329 -4.0625 14.3125 C-5.02545448 17.07296952 -5.90749875 18.06627934 -8 20 C-6.42974824 12.34023533 -4.55018413 6.39485337 0 0 Z " fill="#1E1E1E" transform="translate(372,580)"/>
<path d="M0 0 C-5.2534787 3.20815201 -10.4923962 6.2461981 -16 9 C-16.66 9.66 -17.32 10.32 -18 11 C-17.64537771 8.22312716 -17.24613432 7.20868995 -15.07421875 5.3671875 C-14.28660156 4.87476563 -13.49898437 4.38234375 -12.6875 3.875 C-11.90761719 3.37742187 -11.12773438 2.87984375 -10.32421875 2.3671875 C-9.55722656 1.91601562 -8.79023437 1.46484375 -8 1 C-6.98873047 0.38511719 -6.98873047 0.38511719 -5.95703125 -0.2421875 C-3.56467989 -1.16856707 -2.37660643 -0.84878801 0 0 Z " fill="#1D1D1D" transform="translate(685,633)"/>
<path d="M0 0 C-2.64 0.33 -5.28 0.66 -8 1 C-8 1.66 -8 2.32 -8 3 C-13.61 3.99 -19.22 4.98 -25 6 C-24 4 -24 4 -21.4375 2.875 C-17.41710538 1.85162682 -14.13490187 1.85741718 -10 2 C-10 1.34 -10 0.68 -10 0 C-6.33694766 -0.74926071 -3.57644848 -1.2380014 0 0 Z " fill="#1A1A1A" transform="translate(911,496)"/>
<path d="M0 0 C-1.96386173 1.23289582 -3.92937324 2.46292293 -5.8984375 3.6875 C-7.54489903 4.71577337 -9.18079991 5.76095994 -10.8125 6.8125 C-13 8 -13 8 -16 8 C-14.69983239 4.09949718 -13.23996087 3.68856143 -9.6875 1.75 C-8.23923828 0.93789063 -8.23923828 0.93789063 -6.76171875 0.109375 C-3.86300189 -1.05503177 -2.83470023 -1.15811981 0 0 Z " fill="#1D1D1D" transform="translate(869,531)"/>
<path d="M0 0 C1.32 0.33 2.64 0.66 4 1 C4 1.66 4 2.32 4 3 C4.57234375 3.10183594 5.1446875 3.20367188 5.734375 3.30859375 C8.40275646 4.12291016 10.05965688 5.34673122 12.25 7.0625 C12.95640625 7.61035156 13.6628125 8.15820312 14.390625 8.72265625 C14.92171875 9.14417969 15.4528125 9.56570313 16 10 C12.63761878 10 11.43490484 9.32956617 8.5625 7.6875 C7.41974609 7.04361328 7.41974609 7.04361328 6.25390625 6.38671875 C4.04606228 5.02833988 1.97648088 3.67933341 0 2 C0 1.34 0 0.68 0 0 Z " fill="#1C1C1C" transform="translate(204,847)"/>
<path d="M0 0 C1 3 1 3 -0.109375 5.84765625 C-0.65078125 6.90855469 -1.1921875 7.96945312 -1.75 9.0625 C-2.28109375 10.12597656 -2.8121875 11.18945312 -3.359375 12.28515625 C-5 15 -5 15 -8 17 C-6.43889165 11.60708025 -4.0683009 4.0683009 0 0 Z " fill="#191919" transform="translate(245,509)"/>
<path d="M0 0 C1 3 1 3 -0.43359375 6.35546875 C-1.09148807 7.6380304 -1.75989743 8.91524057 -2.4375 10.1875 C-2.77587891 10.84169922 -3.11425781 11.49589844 -3.46289062 12.16992188 C-4.29969098 13.78459299 -5.14869746 15.39292763 -6 17 C-7.23306978 14.07323092 -7.01493635 13.03773655 -5.8203125 10.01953125 C-5.26085937 8.96121094 -4.70140625 7.90289062 -4.125 6.8125 C-3.57070313 5.74644531 -3.01640625 4.68039062 -2.4453125 3.58203125 C-1 1 -1 1 0 0 Z " fill="#1A1A1A" transform="translate(284,427)"/>
<path d="M0 0 C-2.78566115 2.78566115 -5.12960447 2.49240714 -9 3 C-10.258125 3.37125 -11.51625 3.7425 -12.8125 4.125 C-16 5 -16 5 -18 4 C-17 3 -17 3 -14.4375 2.9375 C-13.2309375 2.9684375 -13.2309375 2.9684375 -12 3 C-12 2.34 -12 1.68 -12 1 C-3.96428571 -1.27678571 -3.96428571 -1.27678571 0 0 Z " fill="#212121" transform="translate(881,503)"/>
<path d="M0 0 C0 0.66 0 1.32 0 2 C-5.33931188 4.86034565 -10.07943568 6.73130765 -16 8 C-13.75132631 5.550167 -11.4579695 3.93845505 -8.5625 2.3125 C-7.80066406 1.87550781 -7.03882813 1.43851563 -6.25390625 0.98828125 C-4 0 -4 0 0 0 Z " fill="#1F1F1F" transform="translate(368,807)"/>
<path d="M0 0 C0.99 0 1.98 0 3 0 C3 0.66 3 1.32 3 2 C2.38511719 2.33773437 1.77023437 2.67546875 1.13671875 3.0234375 C0.32847656 3.46945312 -0.47976563 3.91546875 -1.3125 4.375 C-2.11300781 4.81585937 -2.91351562 5.25671875 -3.73828125 5.7109375 C-5.53527943 6.73513335 -7.27900708 7.85267138 -9 9 C-11.1875 8.625 -11.1875 8.625 -13 8 C-10.16510975 5.16510975 -7.03866043 4.838975 -3.21484375 3.87890625 C-2.48394531 3.58886719 -1.75304687 3.29882812 -1 3 C-0.67 2.01 -0.34 1.02 0 0 Z " fill="#191919" transform="translate(807,562)"/>
<path d="M0 0 C0.66 0 1.32 0 2 0 C0.33846988 5.85659906 -1.47041916 11.4590134 -4 17 C-4.66 17 -5.32 17 -6 17 C-4.67594074 10.93139507 -2.67149708 5.60236281 0 0 Z " fill="#191919" transform="translate(231,536)"/>
<path d="M0 0 C0 6.2436029 -3.17059329 11.5884163 -6 17 C-7.23306978 14.07323092 -7.01493635 13.03773655 -5.8203125 10.01953125 C-5.26085937 8.96121094 -4.70140625 7.90289062 -4.125 6.8125 C-3.57070313 5.74644531 -3.01640625 4.68039062 -2.4453125 3.58203125 C-1 1 -1 1 0 0 Z " fill="#181818" transform="translate(365,257)"/>
<path d="M0 0 C-1.25550458 2.51100916 -2.31919616 2.84591575 -4.8125 4.0625 C-5.49957031 4.40410156 -6.18664062 4.74570312 -6.89453125 5.09765625 C-8.91917319 5.96535994 -10.85157081 6.53169072 -13 7 C-12.67 6.01 -12.34 5.02 -12 4 C-11.01 4 -10.02 4 -9 4 C-9 3.34 -9 2.68 -9 2 C-5.86501708 0.14223235 -3.62528568 -0.20140476 0 0 Z " fill="#1E1E1E" transform="translate(853,539)"/>
<path d="M0 0 C-1.41328129 0.81837442 -2.83078346 1.62946219 -4.25 2.4375 C-5.43335938 3.11619141 -5.43335938 3.11619141 -6.640625 3.80859375 C-8.78833468 4.89311602 -10.65205061 5.53148716 -13 6 C-12 3 -12 3 -10.29296875 1.796875 C-9.59816406 1.45140625 -8.90335938 1.1059375 -8.1875 0.75 C-7.50042969 0.39421875 -6.81335938 0.0384375 -6.10546875 -0.328125 C-3.64922558 -1.11193544 -2.39957614 -0.84119973 0 0 Z " fill="#1E1E1E" transform="translate(882,524)"/>
<path d="M0 0 C0.68359375 1.640625 0.68359375 1.640625 1 4 C-0.21484375 6.796875 -0.21484375 6.796875 -1.9375 9.75 C-2.50339844 10.73484375 -3.06929688 11.7196875 -3.65234375 12.734375 C-4.09707031 13.48203125 -4.54179687 14.2296875 -5 15 C-5.68359375 13.359375 -5.68359375 13.359375 -6 11 C-4.78515625 8.203125 -4.78515625 8.203125 -3.0625 5.25 C-2.49660156 4.26515625 -1.93070312 3.2803125 -1.34765625 2.265625 C-0.90292969 1.51796875 -0.45820313 0.7703125 0 0 Z " fill="#1D1D1D" transform="translate(324,343)"/>
<path d="M0 0 C0.99 0.495 0.99 0.495 2 1 C2 1.99 2 2.98 2 4 C6.34184202 3.81535634 6.34184202 3.81535634 10 2 C11.66617115 1.95936168 13.33388095 1.957279 15 2 C14.01 3.485 14.01 3.485 13 5 C10.1796875 5.29296875 10.1796875 5.29296875 6.875 5.1875 C5.23144531 5.14689453 5.23144531 5.14689453 3.5546875 5.10546875 C2.29011719 5.05326172 2.29011719 5.05326172 1 5 C0.67 3.35 0.34 1.7 0 0 Z " fill="#1E1E1E" transform="translate(627,557)"/>
<path d="M0 0 C1 3 1 3 0.328125 4.97265625 C-0.02765625 5.66230469 -0.3834375 6.35195313 -0.75 7.0625 C-1.26820313 8.10083984 -1.26820313 8.10083984 -1.796875 9.16015625 C-3 11 -3 11 -6 13 C-3.10933941 3.40546697 -3.10933941 3.40546697 0 0 Z " fill="#191919" transform="translate(309,375)"/>
<path d="M0 0 C5.03985731 0.44469329 7.37634988 2.71343362 11 6 C10.01 6.33 9.02 6.66 8 7 C5.95703125 5.8203125 5.95703125 5.8203125 3.8125 4.125 C3.09707031 3.57070313 2.38164062 3.01640625 1.64453125 2.4453125 C1.10183594 1.96835937 0.55914062 1.49140625 0 1 C0 0.67 0 0.34 0 0 Z " fill="#1B1B1B" transform="translate(132,795)"/>
<path d="M0 0 C-6.32837252 2.43046191 -12.23784552 3.59060025 -19 4 C-18.67 3.34 -18.34 2.68 -18 2 C-14.98046875 1.11328125 -14.98046875 1.11328125 -11.1875 0.3125 C-9.94355469 0.04050781 -8.69960938 -0.23148438 -7.41796875 -0.51171875 C-4.41522875 -0.94068161 -2.7837478 -1.04478192 0 0 Z " fill="#171717" transform="translate(663,555)"/>
<path d="M0 0 C0 3.3251266 -0.74804658 5.50736973 -1.875 8.625 C-2.22304688 9.60726563 -2.57109375 10.58953125 -2.9296875 11.6015625 C-4 14 -4 14 -6 15 C-5.17688553 9.73206741 -3.83775737 3.83775737 0 0 Z " fill="#1A1A1A" transform="translate(347,295)"/>
<path d="M0 0 C1.98 0.66 3.96 1.32 6 2 C6 2.66 6 3.32 6 4 C6.61875 4.103125 7.2375 4.20625 7.875 4.3125 C10 5 10 5 12 8 C8.58846252 7.38530856 6.48230844 6.10488946 3.75 4 C3.04359375 3.46375 2.3371875 2.9275 1.609375 2.375 C1.07828125 1.92125 0.5471875 1.4675 0 1 C0 0.67 0 0.34 0 0 Z " fill="#1B1B1B" transform="translate(146,805)"/>
<path d="M0 0 C1.33804688 0.04060547 1.33804688 0.04060547 2.703125 0.08203125 C3.37859375 0.11683594 4.0540625 0.15164063 4.75 0.1875 C4.75 0.5175 4.75 0.8475 4.75 1.1875 C-0.123261 2.7787689 -4.05790596 3.39942221 -9.25 3.1875 C-6.10408067 0.38704377 -4.182936 -0.16511589 0 0 Z " fill="#202020" transform="translate(747.25,533.8125)"/>
<path d="M0 0 C0.33 1.32 0.66 2.64 1 4 C0.34 4 -0.32 4 -1 4 C-1.103125 4.928125 -1.20625 5.85625 -1.3125 6.8125 C-2.0070192 10.03254358 -2.47740939 11.02579865 -5 13 C-4.32829194 9.1936543 -3.27253436 5.64793184 -2 2 C-1.34 2 -0.68 2 0 2 C0 1.34 0 0.68 0 0 Z " fill="#202020" transform="translate(340,310)"/>
<path d="M0 0 C1.0169313 2.65498232 1.13022151 3.69155375 0.00390625 6.359375 C-0.47175781 7.14828125 -0.94742187 7.9371875 -1.4375 8.75 C-2.14712891 9.94882813 -2.14712891 9.94882813 -2.87109375 11.171875 C-3.24363281 11.77515625 -3.61617188 12.3784375 -4 13 C-5.0169313 10.34501768 -5.13022151 9.30844625 -4.00390625 6.640625 C-3.52824219 5.85171875 -3.05257813 5.0628125 -2.5625 4.25 C-2.08941406 3.45078125 -1.61632812 2.6515625 -1.12890625 1.828125 C-0.75636719 1.22484375 -0.38382812 0.6215625 0 0 Z " fill="#1C1C1C" transform="translate(406,171)"/>
<path d="M0 0 C1.0169313 2.65498232 1.13022151 3.69155375 0.00390625 6.359375 C-0.47175781 7.14828125 -0.94742187 7.9371875 -1.4375 8.75 C-2.14712891 9.94882812 -2.14712891 9.94882812 -2.87109375 11.171875 C-3.24363281 11.77515625 -3.61617188 12.3784375 -4 13 C-5.0169313 10.34501768 -5.13022151 9.30844625 -4.00390625 6.640625 C-3.52824219 5.85171875 -3.05257813 5.0628125 -2.5625 4.25 C-2.08941406 3.45078125 -1.61632812 2.6515625 -1.12890625 1.828125 C-0.75636719 1.22484375 -0.38382812 0.6215625 0 0 Z " fill="#1A1A1A" transform="translate(290,414)"/>
<path d="M0 0 C1 3 1 3 0.00390625 5.48046875 C-0.47175781 6.37378906 -0.94742188 7.26710938 -1.4375 8.1875 C-1.91058594 9.08855469 -2.38367188 9.98960937 -2.87109375 10.91796875 C-3.24363281 11.60503906 -3.61617187 12.29210937 -4 13 C-5.0169313 10.34501768 -5.13022151 9.30844625 -4.00390625 6.640625 C-3.52824219 5.85171875 -3.05257812 5.0628125 -2.5625 4.25 C-2.08941406 3.45078125 -1.61632812 2.6515625 -1.12890625 1.828125 C-0.75636719 1.22484375 -0.38382813 0.6215625 0 0 Z " fill="#1F1F1F" transform="translate(159,689)"/>
<path d="M0 0 C0.66 0 1.32 0 2 0 C5.34821429 6.96428571 5.34821429 6.96428571 4 11 C3.32880451 9.5437455 2.66318193 8.08492133 2 6.625 C1.62875 5.81289063 1.2575 5.00078125 0.875 4.1640625 C0 2 0 2 0 0 Z " fill="#1A1A1A" transform="translate(443,509)"/>
<path d="M0 0 C0.66 0 1.32 0 2 0 C0.88059018 4.85077588 -0.1334716 7.777893 -4 11 C-3.49357808 6.64477147 -2.61588503 3.55760365 0 0 Z " fill="#1F1F1F" transform="translate(402,512)"/>
<path d="M0 0 C0.95465783 2.16967689 1.14401212 3.56328793 0.3984375 5.82421875 C-0.35870385 7.5684743 -1.17609198 9.28627131 -2 11 C-2.66 11 -3.32 11 -4 11 C-3.34 8.03 -2.68 5.06 -2 2 C-1.34 2 -0.68 2 0 2 C0 1.34 0 0.68 0 0 Z " fill="#1D1D1D" transform="translate(274,448)"/>
<path d="M0 0 C-2.52956528 3.0916909 -5.22454612 3.90931332 -9 5 C-6.81610567 0.16423399 -5.20641855 -0.13701101 0 0 Z " fill="#1A1A1A" transform="translate(792,573)"/>
<path d="M0 0 C4.3590077 3.48720616 4.94552183 6.72760915 6 12 C3.32289809 10.66144904 3.04870906 9.27941912 1.875 6.5625 C1.52179688 5.75941406 1.16859375 4.95632813 0.8046875 4.12890625 C0 2 0 2 0 0 Z " fill="#171717" transform="translate(466,561)"/>
</svg>
